<?xml version="1.0" encoding="UTF-8"?>
<svg width="560px" height="563px" viewBox="0 0 560 563" version="1.1" xmlns="http://www.w3.org/2000/svg" xmlns:xlink="http://www.w3.org/1999/xlink">
    <!-- Generator: sketchtool 40 (33762) - http://www.bohemiancoding.com/sketch -->
    <title>add-person</title>
    <desc>Created with sketchtool.</desc>
    <defs>
        <path d="M129.925,230.95 C125.625,230.95 122.775,233.825 122.775,238.1 L122.775,338.2 C122.775,342.475 125.625,345.35 129.925,345.35 L144.225,345.35 C148.5,345.35 151.375,342.475 151.375,338.2 L151.375,238.1 C151.375,233.825 148.5,230.95 144.225,230.95 L129.925,230.95 L129.925,230.95 Z" id="path-1"></path>
        <path d="M87.05,273.85 C83.25,273.85 80.575,276.1 80,279.575 L80,296.725 C80.575,300.2 83.25,302.425 87.05,302.425 L187.125,302.425 C191.4,302.425 194.25,299.575 194.25,295.3 L194.25,281 C194.25,276.725 191.4,273.85 187.125,273.85 L87.05,273.85 L87.05,273.85 Z" id="path-3"></path>
        <path d="M333.2,131 C295.6,133.1 265.75,164.25 265.75,202.375 C265.75,241.85 297.75,273.85 337.225,273.85 C376.7,273.85 408.7,241.85 408.7,202.375 C408.7,164.25 378.85,133.1 341.25,131 L333.2,131 L333.2,131 Z" id="path-5"></path>
        <path d="M194.975,412.525 C192.3,421.225 198.4,429.925 207.375,431 L467.075,431 C473.975,430.175 479.175,424.85 480,418.475 L480,414.925 C479.9,414.125 479.725,413.325 479.5,412.525 C462.325,357.5 405.125,316.75 337.225,316.75 C269.325,316.75 212.125,357.5 194.975,412.525 L194.975,412.525 Z" id="path-7"></path>
    </defs>
    <g id="Page-1" stroke="none" stroke-width="1" fill="none" fill-rule="evenodd">
        <g id="add-person">
            <mask id="mask-2" fill="white">
                <use xlink:href="#path-1"></use>
            </mask>
            <use id="Clip-2" fill="#000000" xlink:href="#path-1"></use>
            <mask id="mask-4" fill="white">
                <use xlink:href="#path-3"></use>
            </mask>
            <use id="Clip-5" fill="#000000" xlink:href="#path-3"></use>
            <mask id="mask-6" fill="white">
                <use xlink:href="#path-5"></use>
            </mask>
            <use id="Clip-8" fill="#000000" xlink:href="#path-5"></use>
            <mask id="mask-8" fill="white">
                <use xlink:href="#path-7"></use>
            </mask>
            <use id="Clip-11" fill="#000000" xlink:href="#path-7"></use>
        </g>
    </g>
</svg>