<?xml version="1.0" encoding="UTF-8" standalone="no"?>
<svg width="560px" height="560px" viewBox="0 0 560 560" version="1.1" xmlns="http://www.w3.org/2000/svg" xmlns:xlink="http://www.w3.org/1999/xlink">
    <!-- Generator: sketchtool 39 (31667) - http://www.bohemiancoding.com/sketch -->
    <title>anything</title>
    <desc>Created with sketchtool.</desc>
    <defs></defs>
    <g id="Page-1" stroke="none" stroke-width="1" fill="none" fill-rule="evenodd">
        <g id="anything" fill="#000000">
            <path d="M280,480 C390.45695,480 480,390.45695 480,280 C480,169.54305 390.45695,80 280,80 C169.54305,80 80,169.54305 80,280 C80,390.45695 169.54305,480 280,480 Z M371.897461,144.223633 C354.676331,132.871544 339.334961,127.455078 339.334961,127.455078 C339.334961,127.455078 350.413379,151.341989 354.251953,163.400391 C358.886686,177.959828 364.754883,207.308594 364.754883,207.308594 L426.736328,207.349609 C426.736328,207.349609 410.586914,169.727539 371.897461,144.223633 Z M371.897461,415.581055 C354.676331,426.933143 339.334961,432.349609 339.334961,432.349609 C339.334961,432.349609 350.413379,408.462698 354.251953,396.404297 C358.886686,381.84486 364.754883,352.496094 364.754883,352.496094 L426.736328,352.455078 C426.736328,352.455078 410.586914,390.077148 371.897461,415.581055 Z M187.546391,415.581055 C204.570486,426.933143 219.736328,432.349609 219.736328,432.349609 C219.736328,432.349609 208.784663,408.462698 204.990008,396.404297 C200.408303,381.84486 194.607247,352.496094 194.607247,352.496094 L133.334961,352.455078 C133.334961,352.455078 149.299602,390.077148 187.546391,415.581055 Z M188.173828,144.223633 C205.394958,132.871544 220.736328,127.455078 220.736328,127.455078 C220.736328,127.455078 209.65791,151.341989 205.819336,163.400391 C201.184603,177.959828 195.316406,207.308594 195.316406,207.308594 L133.334961,207.349609 C133.334961,207.349609 149.484375,169.727539 188.173828,144.223633 Z M369.385742,243.661621 C369.385742,243.661621 370.988281,264.227539 370.988281,278.665527 C370.988281,293.103516 369.408203,316.282227 369.408203,316.282227 L439.591309,316.320801 C439.591309,316.320801 443.569336,299.918945 443.569336,278.665527 C443.569336,257.412109 439.619141,243.722168 439.619141,243.722168 L369.385742,243.661621 Z M190.569336,243.661621 C190.569336,243.661621 188.966797,264.227539 188.966797,278.665527 C188.966797,293.103516 190.546875,316.282227 190.546875,316.282227 L120.36377,316.320801 C120.36377,316.320801 116.385742,299.918945 116.385742,278.665527 C116.385742,257.412109 120.335938,243.722168 120.335938,243.722168 L190.569336,243.661621 Z M227.020508,243.800781 C227.020508,243.800781 225.491422,260.605204 225.45752,278.790527 C225.423617,296.975851 227.020508,316.350098 227.020508,316.350098 L332.913574,316.350098 C332.913574,316.350098 334.545658,296.977328 334.509279,278.790527 C334.472901,260.603726 332.913576,243.800781 332.913576,243.800781 L227.020508,243.800781 Z M285.300003,118 C282.683594,116.384277 279.775635,116.386719 279.775635,116.386719 C279.775635,116.386719 276.379401,116.957531 274.699997,118 C245.669998,136.020004 232.371094,207.067383 232.371094,207.067383 L327.726562,207.164551 C327.726562,207.164551 314.328421,136.015461 285.300003,118 Z M285.300003,441.55127 C282.683594,443.166992 279.775635,443.164551 279.775635,443.164551 C279.775635,443.164551 276.379401,442.593738 274.699997,441.55127 C245.669998,423.531265 232.371094,352.483887 232.371094,352.483887 L327.726562,352.386719 C327.726562,352.386719 314.328421,423.535808 285.300003,441.55127 Z" id="Combined-Shape"></path>
        </g>
    </g>
</svg>