<?xml version="1.0" encoding="UTF-8" standalone="no"?>
<svg width="560px" height="563px" viewBox="0 0 560 563" version="1.1" xmlns="http://www.w3.org/2000/svg" xmlns:xlink="http://www.w3.org/1999/xlink">
    <!-- Generator: sketchtool 39 (31667) - http://www.bohemiancoding.com/sketch -->
    <title>appsgames</title>
    <desc>Created with sketchtool.</desc>
    <defs></defs>
    <g id="Page-1" stroke="none" stroke-width="1" fill="none" fill-rule="evenodd">
        <g id="appsgames" fill="#000000">
            <g id="item_category_appsgames" transform="translate(80.000000, 80.000000)">
                <polygon id="Fill-1" points="167.832618 191.9 236.182073 191.9 201.988982 123.587273"></polygon>
                <path d="M323.2,212.1 L268.843636,212.1 L312.034909,298.482545 C314.532364,303.477455 312.512364,309.537455 307.517455,312.034909 C306.048364,312.769455 304.505818,313.1 303,313.1 C299.327273,313.1 295.728,311.043273 293.965091,307.517455 L246.256364,212.1 L157.743636,212.1 L110.034909,307.517455 C107.537455,312.512364 101.514182,314.495636 96.4825455,312.034909 C91.4876364,309.537455 89.4676364,303.477455 91.9650909,298.482545 L135.156364,212.1 L80.8,212.1 C75.2174545,212.1 70.7,207.582545 70.7,202 C70.7,196.417455 75.2174545,191.9 80.8,191.9 L145.256364,191.9 L192.965091,96.4825455 C196.380727,89.6512727 207.619273,89.6512727 211.034909,96.4825455 L258.743636,191.9 L323.2,191.9 C328.782545,191.9 333.3,196.417455 333.3,202 C333.3,207.582545 328.782545,212.1 323.2,212.1 M323.2,0 L80.8,0 C36.1763636,0 0,36.1763636 0,80.8 L0,323.2 C0,367.823636 36.1763636,404 80.8,404 L323.2,404 C367.823636,404 404,367.823636 404,323.2 L404,80.8 C404,36.1763636 367.823636,0 323.2,0" id="Fill-2"></path>
            </g>
        </g>
    </g>
</svg>