<?xml version="1.0" encoding="UTF-8" standalone="no"?>
<svg width="560px" height="560px" viewBox="0 0 560 560" version="1.1" xmlns="http://www.w3.org/2000/svg" xmlns:xlink="http://www.w3.org/1999/xlink">
    <!-- Generator: sketchtool 39 (31667) - http://www.bohemiancoding.com/sketch -->
    <title>articles</title>
    <desc>Created with sketchtool.</desc>
    <defs>
        <path d="M0,10.175 L0,366.3 C0,388.685 18.18,407 40.4,407 L363.6,407 C385.82,407 404,388.685 404,366.3 L404,10.175 C404,4.07 399.96,0 393.9,0 L10.1,0 C4.04,0 0,4.07 0,10.175 L0,10.175 Z M70.7,142.45 L171.7,142.45 C177.76,142.45 181.8,146.52 181.8,152.625 L181.8,172.975 C181.8,179.08 177.76,183.15 171.7,183.15 L70.7,183.15 C64.64,183.15 60.6,179.08 60.6,172.975 L60.6,152.625 C60.6,146.52 64.64,142.45 70.7,142.45 L70.7,142.45 Z M70.7,223.85 L172.71,223.85 C178.77,223.85 182.81,227.92 182.81,234.025 L182.81,254.375 C182.81,260.48 178.77,264.55 172.71,264.55 L70.7,264.55 C64.64,264.55 60.6,260.48 60.6,254.375 L60.6,234.025 C60.6,227.92 64.64,223.85 70.7,223.85 L70.7,223.85 Z M333.3,345.95 L70.7,345.95 C64.64,345.95 60.6,341.88 60.6,335.775 L60.6,315.425 C60.6,309.32 64.64,305.25 70.7,305.25 L333.3,305.25 C339.36,305.25 343.4,309.32 343.4,315.425 L343.4,335.775 C343.4,341.88 339.36,345.95 333.3,345.95 L333.3,345.95 Z M333.3,264.55 L232.3,264.55 C226.24,264.55 222.2,260.48 222.2,254.375 L222.2,152.625 C222.2,146.52 226.24,142.45 232.3,142.45 L333.3,142.45 C339.36,142.45 343.4,146.52 343.4,152.625 L343.4,254.375 C343.4,260.48 339.36,264.55 333.3,264.55 L333.3,264.55 Z M333.3,101.75 L70.7,101.75 C64.64,101.75 60.6,97.68 60.6,91.575 L60.6,71.225 C60.6,65.12 64.64,61.05 70.7,61.05 L333.3,61.05 C339.36,61.05 343.4,65.12 343.4,71.225 L343.4,91.575 C343.4,97.68 339.36,101.75 333.3,101.75 L333.3,101.75 Z" id="path-1"></path>
    </defs>
    <g id="Page-1" stroke="none" stroke-width="1" fill="none" fill-rule="evenodd">
        <g id="articles">
            <g id="item_category_articles" transform="translate(80.000000, 80.000000)">
                <mask id="mask-2" fill="white">
                    <use xlink:href="#path-1"></use>
                </mask>
                <use id="Clip-2" fill="#000000" xlink:href="#path-1"></use>
            </g>
        </g>
    </g>
</svg>