<?xml version="1.0" encoding="UTF-8"?>
<svg width="560px" height="563px" viewBox="0 0 560 563" version="1.1" xmlns="http://www.w3.org/2000/svg" xmlns:xlink="http://www.w3.org/1999/xlink">
    <!-- Generator: sketchtool 40 (33762) - http://www.bohemiancoding.com/sketch -->
    <title>bolt</title>
    <desc>Created with sketchtool.</desc>
    <defs>
        <path d="M355.141846,97.3846154 C353.287077,97.3846154 351.432615,97.9972308 349.896923,99.2224615 L98.1487692,300.620923 C95.3627385,302.844615 94.2970154,306.587385 95.4718462,309.952308 C96.6550462,313.317538 99.8270769,315.566462 103.393508,315.566462 L256.104,315.566462 L196.380923,454.917477 C194.862154,458.458738 195.944615,462.570615 199.016,464.903508 C200.509538,466.044769 202.305538,466.615385 204.092923,466.615385 C205.947385,466.615385 207.801846,466.0028 209.337538,464.777631 L461.085846,263.379077 C463.871692,261.155385 464.937538,257.412615 463.762769,254.047692 C462.579385,250.682462 459.407385,248.433538 455.840923,248.433538 L303.130462,248.433538 L362.853538,109.082462 C364.372615,105.541231 363.290154,101.429231 360.218769,99.0966154 C358.716615,97.9553846 356.929231,97.3846154 355.141846,97.3846154 L355.141846,97.3846154 Z" id="path-1"></path>
    </defs>
    <g id="Page-1" stroke="none" stroke-width="1" fill="none" fill-rule="evenodd">
        <g id="bolt">
            <mask id="mask-2" fill="white">
                <use xlink:href="#path-1"></use>
            </mask>
            <use id="Clip-2" fill="#000000" xlink:href="#path-1"></use>
        </g>
    </g>
</svg>