<?xml version="1.0" encoding="UTF-8" standalone="no"?>
<svg width="560px" height="563px" viewBox="0 0 560 563" version="1.1" xmlns="http://www.w3.org/2000/svg" xmlns:xlink="http://www.w3.org/1999/xlink">
    <!-- Generator: sketchtool 3.8.3 (29802) - http://www.bohemiancoding.com/sketch -->
    <title>bolt</title>
    <desc>Created with sketchtool.</desc>
    <defs>
        <path d="M260.141846,15.3846154 C258.287077,15.3846154 256.432615,15.9972308 254.896923,17.2224615 L3.14876923,218.620923 C0.362738462,220.844615 -0.702984615,224.587385 0.471846154,227.952308 C1.65504615,231.317538 4.82707692,233.566462 8.39350769,233.566462 L161.104,233.566462 L101.380923,372.917477 C99.8621538,376.458738 100.944615,380.570615 104.016,382.903508 C105.509538,384.044769 107.305538,384.615385 109.092923,384.615385 C110.947385,384.615385 112.801846,384.0028 114.337538,382.777631 L366.085846,181.379077 C368.871692,179.155385 369.937538,175.412615 368.762769,172.047692 C367.579385,168.682462 364.407385,166.433538 360.840923,166.433538 L208.130462,166.433538 L267.853538,27.0824615 C269.372615,23.5412308 268.290154,19.4292308 265.218769,17.0966154 C263.716615,15.9553846 261.929231,15.3846154 260.141846,15.3846154 L260.141846,15.3846154 Z" id="path-1"></path>
    </defs>
    <g id="Page-1" stroke="none" stroke-width="1" fill="none" fill-rule="evenodd">
        <g id="bolt">
            <g id="icon_subscribe_notifications" transform="translate(95.000000, 82.000000)">
                <mask id="mask-2" fill="white">
                    <use xlink:href="#path-1"></use>
                </mask>
                <g id="Clip-2"></g>
                <polygon id="Fill-1" fill="#000000" mask="url(#mask-2)" points="-76.9230769 -61.5384615 446.157538 -61.5384615 446.157538 461.538462 -76.9230769 461.538462"></polygon>
            </g>
        </g>
    </g>
</svg>