<?xml version="1.0" encoding="UTF-8" standalone="no"?>
<svg width="560px" height="563px" viewBox="0 0 560 563" version="1.1" xmlns="http://www.w3.org/2000/svg" xmlns:xlink="http://www.w3.org/1999/xlink">
    <!-- Generator: sketchtool 3.8.2 (29753) - http://www.bohemiancoding.com/sketch -->
    <title>bookmark-outline-thick</title>
    <desc>Created with sketchtool.</desc>
    <defs></defs>
    <g id="Page-1" stroke="none" stroke-width="1" fill="none" fill-rule="evenodd">
        <g id="bookmark-outline-thick" stroke="#000000" stroke-width="18">
            <g id="new-vault-action" transform="translate(114.000000, 88.000000)">
                <path d="M37.0275862,1.22507368e-14 C16.8068966,1.22507368e-14 0.255172414,16.5517241 0.255172414,36.8 L0.255172414,367.82069 C0.255172414,378.868966 9.45517241,386.22069 18.6551724,386.22069 C22.3241379,386.22069 25.0965517,385.310345 27.8551724,383.448276 L165.786207,298.868966 L303.717241,383.448276 C306.475862,385.310345 310.158621,386.22069 312.917241,386.22069 C322.117241,386.22069 331.317241,378.868966 331.317241,367.82069 L331.317241,36.8 C331.317241,16.5655172 314.765517,0 294.544828,0 L37.0551724,0 L37.0275862,1.22507368e-14 Z M18.6413793,36.8 C18.6413793,26.6758621 26.9034483,18.4 37.0275862,18.4 L294.517241,18.4 C304.627586,18.4 312.903448,26.662069 312.903448,36.8 L312.903448,367.82069 L174.972414,283.227586 C172.213793,281.406897 168.531034,280.468966 165.772414,280.468966 C163.013793,280.468966 159.331034,281.393103 156.586207,283.227586 L18.6413793,367.82069 L18.6413793,36.8 L18.6413793,36.8 Z" id="Shape"></path>
            </g>
        </g>
    </g>
</svg>