<?xml version="1.0" encoding="UTF-8" standalone="no"?>
<svg width="560px" height="563px" viewBox="0 0 560 563" version="1.1" xmlns="http://www.w3.org/2000/svg" xmlns:xlink="http://www.w3.org/1999/xlink">
    <!-- Generator: sketchtool 3.8.2 (29753) - http://www.bohemiancoding.com/sketch -->
    <title>bookmark-outline</title>
    <desc>Created with sketchtool.</desc>
    <defs></defs>
    <g id="Page-1" stroke="none" stroke-width="1" fill="none" fill-rule="evenodd">
        <g id="bookmark-outline" fill="#000000">
            <g id="new-vault-action" transform="translate(108.000000, 82.000000)">
                <path d="M38.0275862,-1.57772181e-30 C17.8068966,-1.57772181e-30 1.25517241,16.5517241 1.25517241,36.8 L1.25517241,367.82069 C1.25517241,378.868966 10.4551724,386.22069 19.6551724,386.22069 C23.3241379,386.22069 26.0965517,385.310345 28.8551724,383.448276 L166.786207,298.868966 L304.717241,383.448276 C307.475862,385.310345 311.158621,386.22069 313.917241,386.22069 C323.117241,386.22069 332.317241,378.868966 332.317241,367.82069 L332.317241,36.8 C332.317241,16.5655172 315.765517,-1.22507368e-14 295.544828,-1.22507368e-14 L38.0551724,-1.22507368e-14 L38.0275862,-1.57772181e-30 Z M19.6413793,36.8 C19.6413793,26.6758621 27.9034483,18.4 38.0275862,18.4 L295.517241,18.4 C305.627586,18.4 313.903448,26.662069 313.903448,36.8 L313.903448,367.82069 L175.972414,283.227586 C173.213793,281.406897 169.531034,280.468966 166.772414,280.468966 C164.013793,280.468966 160.331034,281.393103 157.586207,283.227586 L19.6413793,367.82069 L19.6413793,36.8 L19.6413793,36.8 Z" id="Shape"></path>
            </g>
        </g>
    </g>
</svg>