<?xml version="1.0" encoding="UTF-8" standalone="no"?>
<svg width="560px" height="563px" viewBox="0 0 560 563" version="1.1" xmlns="http://www.w3.org/2000/svg" xmlns:xlink="http://www.w3.org/1999/xlink">
    <!-- Generator: sketchtool 3.8.3 (29802) - http://www.bohemiancoding.com/sketch -->
    <title>bookmark-outline-thick</title>
    <desc>Created with sketchtool.</desc>
    <defs></defs>
    <g id="Page-1" stroke="none" stroke-width="1" fill="none" fill-rule="evenodd">
        <g id="bookmark-outline-thick" fill="#000000">
            <g id="new-vault-action" transform="translate(114.000000, 88.000000)">
                <path d="M0.255172414,36.8 L0.255172414,367.82069 C0.255172414,378.868966 9.45517241,386.22069 18.6551724,386.22069 C22.3241379,386.22069 25.0965517,385.310345 27.8551724,383.448276 L165.786207,298.868966 L303.717241,383.448276 C306.475862,385.310345 310.158621,386.22069 312.917241,386.22069 C322.117241,386.22069 331.317241,378.868966 331.317241,367.82069 L331.317241,36.8 C331.317241,16.5655172 314.765517,0 294.544828,0 L37.0551724,0 C16.8068966,1.22507368e-14 0.255172414,16.5517241 0.255172414,36.8 Z M56.4424358,40.8500004 L275.097573,40.8500004 C283.683078,40.8500004 290.710777,47.3559353 290.710777,55.3390107 L290.710777,316 L173.582463,247.387481 C171.239897,245.953786 168.112571,245.215215 165.770004,245.215215 C163.427438,245.215215 160.300112,245.942924 157.969259,247.387481 L40.8292315,316 L40.8292315,55.3390107 C40.8292315,47.3667966 47.8452176,40.8500004 56.4424358,40.8500004 Z" id="Shape"></path>
            </g>
        </g>
    </g>
</svg>