<?xml version="1.0" encoding="UTF-8" standalone="no"?>
<svg width="560px" height="563px" viewBox="0 0 560 563" version="1.1" xmlns="http://www.w3.org/2000/svg" xmlns:xlink="http://www.w3.org/1999/xlink">
    <!-- Generator: sketchtool 3.8.3 (29802) - http://www.bohemiancoding.com/sketch -->
    <title>bookmark-outline-thick</title>
    <desc>Created with sketchtool.</desc>
    <defs>
        <path d="M38.3818182,0 C17.4363636,0 0.290909091,17.1454545 0.290909091,38.1090909 L0.290909091,380.945455 C0.290909091,392.381818 9.81818182,400 19.3454545,400 C23.1454545,400 26.0181818,399.054545 28.8727273,397.127273 L171.727273,309.527273 L314.581818,397.127273 C317.436364,399.054545 321.254545,400 324.109091,400 C333.636364,400 343.163636,392.381818 343.163636,380.945455 L343.163636,38.1090909 C343.163636,17.1454545 326.018182,0 305.072727,0 L38.3818182,0 L38.3818182,0 Z M31.0313649,46.4933389 C31.0313649,36.9345627 38.9381682,29.1318182 48.6076346,29.1318182 L294.843284,29.1318182 C304.512751,29.1318182 312.419554,36.9345627 312.419554,46.4933389 L312.419554,358.868182 L180.521988,279.035006 C177.886387,277.312107 174.361061,276.434091 171.725459,276.434091 C169.089858,276.434091 165.564532,277.312107 162.945718,279.035006 L31.0313649,358.868182 L31.0313649,46.4933389 L31.0313649,46.4933389 Z" id="path-1"></path>
    </defs>
    <g id="Page-1" stroke="none" stroke-width="1" fill="none" fill-rule="evenodd">
        <g id="bookmark-outline-thick">
            <g id="post_action_bookmark_icon-copy" transform="translate(108.000000, 82.000000)">
                <mask id="mask-2" fill="white">
                    <use xlink:href="#path-1"></use>
                </mask>
                <use id="Clip-2" fill="#000000" xlink:href="#path-1"></use>
            </g>
        </g>
    </g>
</svg>