<?xml version="1.0" encoding="UTF-8" standalone="no"?>
<svg width="560px" height="560px" viewBox="0 0 560 560" version="1.1" xmlns="http://www.w3.org/2000/svg" xmlns:xlink="http://www.w3.org/1999/xlink">
    <!-- Generator: sketchtool 3.8.2 (29753) - http://www.bohemiancoding.com/sketch -->
    <title>books</title>
    <desc>Created with sketchtool.</desc>
    <defs>
        <path d="M0,314.5 L165.272727,407 L165.272727,92.5 L0,0 L0,314.5 L0,314.5 Z M36.7272727,64.75 L128.545455,116.55 L128.545455,160.95 L36.7272727,109.15 L36.7272727,64.75 L36.7272727,64.75 Z M36.7272727,155.4 L128.545455,207.2 L128.545455,251.6 L36.7272727,199.8 L36.7272727,155.4 L36.7272727,155.4 Z M36.7272727,246.05 L128.545455,297.85 L128.545455,342.25 L36.7272727,290.45 L36.7272727,246.05 L36.7272727,246.05 Z" id="path-1"></path>
        <path d="M202,92.5 L202,407 L367.272727,314.5 L367.272727,0 L202,92.5 L202,92.5 Z M330.545455,290.45 L238.727273,342.25 L238.727273,296 L330.545455,244.2 L330.545455,290.45 L330.545455,290.45 Z M330.545455,199.8 L238.727273,251.6 L238.727273,207.2 L330.545455,155.4 L330.545455,199.8 L330.545455,199.8 Z M330.545455,111 L238.727273,162.8 L238.727273,118.4 L330.545455,66.6 L330.545455,111 L330.545455,111 Z" id="path-3"></path>
    </defs>
    <g id="Page-1" stroke="none" stroke-width="1" fill="none" fill-rule="evenodd">
        <g id="books">
            <g id="item_category_book" transform="translate(98.000000, 80.000000)">
                <mask id="mask-2" fill="white">
                    <use xlink:href="#path-1"></use>
                </mask>
                <use id="Clip-2" fill="#000000" xlink:href="#path-1"></use>
                <mask id="mask-4" fill="white">
                    <use xlink:href="#path-3"></use>
                </mask>
                <use id="Clip-5" fill="#000000" xlink:href="#path-3"></use>
            </g>
        </g>
    </g>
</svg>