<?xml version="1.0" encoding="UTF-8" standalone="no"?>
<svg width="560px" height="563px" viewBox="0 0 560 563" version="1.1" xmlns="http://www.w3.org/2000/svg" xmlns:xlink="http://www.w3.org/1999/xlink">
    <!-- Generator: sketchtool 3.8.2 (29753) - http://www.bohemiancoding.com/sketch -->
    <title>bookmark-outline-thick</title>
    <desc>Created with sketchtool.</desc>
    <defs></defs>
    <g id="Page-1" stroke="none" stroke-width="1" fill="none" fill-rule="evenodd">
        <g id="bookmark-outline-thick" fill="#000000">
            <g id="new-vault-action" transform="translate(114.000000, 88.000000)">
                <path d="M37.0275862,1.22507368e-14 C16.8068966,1.22507368e-14 0.255172414,16.5517241 0.255172414,36.8 L0.255172414,367.82069 C0.255172414,378.868966 9.45517241,386.22069 18.6551724,386.22069 C22.3241379,386.22069 25.0965517,385.310345 27.8551724,383.448276 L165.786207,298.868966 L303.717241,383.448276 C306.475862,385.310345 310.158621,386.22069 312.917241,386.22069 C322.117241,386.22069 331.317241,378.868966 331.317241,367.82069 L331.317241,36.8 C331.317241,16.5655172 314.765517,0 294.544828,0 L37.0551724,0 L37.0275862,1.22507368e-14 Z M50.8712499,36.7000008 L280.668759,36.7000008 C289.69177,36.7000008 297.077591,43.8408052 297.077591,52.6028942 L297.077591,338.700001 L173.980575,265.587223 C171.518635,264.013623 168.231945,263.202981 165.770004,263.202981 C163.308064,263.202981 160.021374,264.001702 157.571743,265.587223 L34.4624178,338.700001 L34.4624178,52.6028942 C34.4624178,43.8527265 41.835929,36.7000008 50.8712499,36.7000008 Z" id="Shape"></path>
            </g>
        </g>
    </g>
</svg>