<?xml version="1.0" encoding="UTF-8" standalone="no"?>
<svg width="560px" height="563px" viewBox="0 0 560 563" version="1.1" xmlns="http://www.w3.org/2000/svg" xmlns:xlink="http://www.w3.org/1999/xlink">
    <!-- Generator: sketchtool 3.8.3 (29802) - http://www.bohemiancoding.com/sketch -->
    <title>bookmark-outline-thick</title>
    <desc>Created with sketchtool.</desc>
    <defs>
        <path d="M38.3959573,0 C17.4427279,0 0.290909091,17.1454545 0.290909091,38.1090909 L0.290909091,380.945455 C0.290909091,392.381818 9.8217183,400 19.3525275,400 C23.153938,400 26.0277317,399.054545 28.8833367,397.127273 L171.790909,309.527273 L314.698481,397.127273 C317.554087,399.054545 321.373686,400 324.229291,400 C333.7601,400 343.290909,392.381818 343.290909,380.945455 L343.290909,38.1090909 C343.290909,17.1454545 326.13909,0 305.185861,0 L38.3959573,0 L38.3959573,0 Z M33.6454545,49.0594855 C33.6454545,39.6670016 41.3926793,32 50.8669924,32 L292.133008,32 C301.607321,32 309.354545,39.6670016 309.354545,49.0594855 L309.354545,356 L180.118993,277.555667 C177.536585,275.862741 174.082408,275 171.5,275 C168.917592,275 165.463415,275.862741 162.897455,277.555667 L33.6454545,356 L33.6454545,49.0594855 L33.6454545,49.0594855 Z" id="path-1"></path>
    </defs>
    <g id="Page-1" stroke="none" stroke-width="1" fill="none" fill-rule="evenodd">
        <g id="bookmark-outline-thick">
            <g id="post_action_bookmark_icon-copy" transform="translate(108.000000, 82.000000)">
                <mask id="mask-2" fill="white">
                    <use xlink:href="#path-1"></use>
                </mask>
                <use id="Clip-2" fill="#000000" xlink:href="#path-1"></use>
            </g>
        </g>
    </g>
</svg>