<?xml version="1.0" encoding="UTF-8"?>
<svg width="560px" height="563px" viewBox="0 0 560 563" version="1.1" xmlns="http://www.w3.org/2000/svg" xmlns:xlink="http://www.w3.org/1999/xlink">
    <!-- Generator: sketchtool 40 (33762) - http://www.bohemiancoding.com/sketch -->
    <title>cross</title>
    <desc>Created with sketchtool.</desc>
    <defs></defs>
    <g id="Page-1" stroke="none" stroke-width="1" fill="none" fill-rule="evenodd">
        <g id="cross" fill="#000000">
            <g id="nav_close_button" transform="translate(80.000000, 82.000000)">
                <path d="M24.2857143,395.714286 L4.28571429,375.714286 C-1.42857143,370 -1.42857143,361.428571 4.28571429,355.714286 L355.714286,4.28571429 C361.428571,-1.42857143 370,-1.42857143 375.714286,4.28571429 L395.714286,24.2857143 C401.428571,30 401.428571,38.5714286 395.714286,44.2857143 L44.2857143,395.714286 C38.5714286,401.428571 30,401.428571 24.2857143,395.714286 L24.2857143,395.714286 Z" id="Clip-2"></path>
                <path d="M375.714286,395.714286 L395.714286,375.714286 C401.428571,370 401.428571,361.428571 395.714286,355.714286 L44.2857143,4.28571429 C38.5714286,-1.42857143 30,-1.42857143 24.2857143,4.28571429 L4.28571429,24.2857143 C-1.42857143,30 -1.42857143,38.5714286 4.28571429,44.2857143 L355.714286,395.714286 C361.428571,401.428571 370,401.428571 375.714286,395.714286 L375.714286,395.714286 Z" id="Clip-5"></path>
            </g>
        </g>
    </g>
</svg>