<?xml version="1.0" encoding="UTF-8" standalone="no"?>
<svg width="560px" height="563px" viewBox="0 0 560 563" version="1.1" xmlns="http://www.w3.org/2000/svg" xmlns:xlink="http://www.w3.org/1999/xlink">
    <!-- Generator: sketchtool 39 (31667) - http://www.bohemiancoding.com/sketch -->
    <title>explore</title>
    <desc>Created with sketchtool.</desc>
    <defs></defs>
    <g id="Page-1" stroke="none" stroke-width="1" fill="none" fill-rule="evenodd">
        <g id="explore" fill="#000000">
            <g id="action-link" transform="translate(80.000000, 82.000000)">
                <g id="Group">
                    <path d="M200,0 C89.55,0 0,89.55 0,200 C0,310.45 89.55,400 200,400 C310.45,400 400,310.45 400,200 C400,89.55 310.45,0 200,0 L200,0 Z M200.001085,41.85625 C287.193177,41.85625 358.15,112.817747 358.15,200.001085 C358.15,287.184423 287.193177,358.160417 200.001085,358.160417 C112.808994,358.160417 41.8666667,287.19892 41.8666667,200.001085 C41.8666667,112.80325 112.823489,41.85625 200.001085,41.85625 L200.001085,41.85625 Z" id="Shape"></path>
                    <path d="M278.516667,117.766667 C277.766667,117.766667 277.066667,117.966667 276.466667,118.316667 L183.566667,171.75 C178.483333,174.666667 174.233333,178.9 171.316667,184 L117.916667,276.866667 C117.566667,277.466667 117.366667,278.166667 117.366667,278.916667 C117.366667,281.2 119.216667,283.066667 121.5,283.066667 C122.25,283.066667 122.95,282.866667 123.55,282.516667 L216.45,229.083333 C221.516667,226.166667 225.783333,221.933333 228.7,216.833333 L282.1,123.933333 C282.45,123.333333 282.65,122.633333 282.65,121.883333 C282.65,119.6 280.8,117.75 278.516667,117.75 L278.516667,117.766667 Z" id="Shape"></path>
                </g>
            </g>
        </g>
    </g>
</svg>