<?xml version="1.0" encoding="UTF-8" standalone="no"?>
<svg width="560px" height="563px" viewBox="0 0 560 563" version="1.1" xmlns="http://www.w3.org/2000/svg" xmlns:xlink="http://www.w3.org/1999/xlink">
    <!-- Generator: sketchtool 3.8.2 (29753) - http://www.bohemiancoding.com/sketch -->
    <title>explore</title>
    <desc>Created with sketchtool.</desc>
    <defs>
        <path d="M200,0 C89.5454545,0 0,89.5454545 0,200 C0,310.454545 89.5454545,400 200,400 C310.454545,400 400,310.454545 400,200 C400,89.5454545 310.454545,0 200,0 L200,0 Z M200,36.3636364 C290.236364,36.3636364 363.636364,109.763636 363.636364,200 C363.636364,290.236364 290.236364,363.636364 200,363.636364 C109.763636,363.636364 36.3636364,290.236364 36.3636364,200 C36.3636364,109.763636 109.763636,36.3636364 200,36.3636364 L200,36.3636364 Z" id="path-1"></path>
        <path d="M177.272727,0 C176.454545,0 175.672727,0.218181818 175.018182,0.6 L72.8363636,59.3636364 C67.2363636,62.5818182 62.5818182,67.2363636 59.3636364,72.8363636 L0.6,175.018182 C0.218181818,175.672727 0,176.454545 0,177.272727 C0,179.781818 2.03636364,181.818182 4.54545455,181.818182 C5.36363636,181.818182 6.14545455,181.6 6.8,181.218182 L108.981818,122.454545 C114.581818,119.236364 119.236364,114.581818 122.454545,108.981818 L181.218182,6.8 C181.6,6.14545455 181.818182,5.36363636 181.818182,4.54545455 C181.818182,2.03636364 179.781818,0 177.272727,0 L177.272727,0 Z" id="path-3"></path>
    </defs>
    <g id="Page-1" stroke="none" stroke-width="1" fill="none" fill-rule="evenodd">
        <g id="explore">
            <g id="tab_explore_icon" transform="translate(80.000000, 82.000000)">
                <g id="Group-3">
                    <mask id="mask-2" fill="white">
                        <use xlink:href="#path-1"></use>
                    </mask>
                    <g id="Clip-2"></g>
                    <polygon id="Fill-1" fill="#000000" mask="url(#mask-2)" points="-90.9090909 -90.9090909 490.909091 -90.9090909 490.909091 490.909091 -90.9090909 490.909091"></polygon>
                </g>
                <g id="Group-6" transform="translate(109.090909, 109.090909)">
                    <mask id="mask-4" fill="white">
                        <use xlink:href="#path-3"></use>
                    </mask>
                    <g id="Clip-5"></g>
                    <polygon id="Fill-4" fill="#000000" mask="url(#mask-4)" points="-90.9090909 -90.9090909 272.727273 -90.9090909 272.727273 272.727273 -90.9090909 272.727273"></polygon>
                </g>
            </g>
        </g>
    </g>
</svg>