<?xml version="1.0" encoding="UTF-8"?>
<svg width="560px" height="563px" viewBox="0 0 560 563" version="1.1" xmlns="http://www.w3.org/2000/svg" xmlns:xlink="http://www.w3.org/1999/xlink">
    <!-- Generator: sketchtool 40 (33762) - http://www.bohemiancoding.com/sketch -->
    <title>facebook</title>
    <desc>Created with sketchtool.</desc>
    <defs></defs>
    <g id="Page-1" stroke="none" stroke-width="1" fill="none" fill-rule="evenodd">
        <g id="facebook" fill="#000000">
            <g id="facebook-official" transform="translate(80.000000, 82.000000)">
                <path d="M370.157143,4.08571429 C376.109524,4.08571429 381.209524,6.20952381 385.457143,10.4571429 C389.704762,14.7047619 391.828571,19.8047619 391.828571,25.7571429 L391.828571,374.228571 C391.828571,380.180952 389.704762,385.280952 385.457143,389.528571 C381.209524,393.77619 376.109524,395.9 370.157143,395.9 L270.414286,395.9 L270.414286,244.114286 L321.185714,244.114286 L328.842857,184.928571 L270.428571,184.928571 L270.428571,147.171429 C270.428571,137.647619 272.428571,130.504762 276.428571,125.742857 C280.428571,120.980952 288.209524,118.6 299.771429,118.6 L330.9,118.342857 L330.9,65.5428571 C320.185714,64.0095238 305.047619,63.2428571 285.485714,63.2428571 C262.352381,63.2428571 243.857143,70.047619 230,83.6571429 C216.142857,97.2666667 209.214286,116.485714 209.214286,141.314286 L209.214286,184.942857 L158.2,184.942857 L158.2,244.128571 L209.214286,244.128571 L209.214286,395.914286 L21.7142857,395.914286 C15.7619048,395.914286 10.6619048,393.790476 6.41428571,389.542857 C2.16666667,385.295238 0.0428571429,380.195238 0.0428571429,374.242857 L0.0428571429,25.7714286 C0.0428571429,19.8190476 2.16666667,14.7190476 6.41428571,10.4714286 C10.6619048,6.22380952 15.7619048,4.1 21.7142857,4.1 L370.185714,4.1 L370.157143,4.08571429 Z" id="Shape"></path>
            </g>
        </g>
    </g>
</svg>