<?xml version="1.0" encoding="UTF-8" standalone="no"?>
<svg width="560px" height="560px" viewBox="0 0 560 560" version="1.1" xmlns="http://www.w3.org/2000/svg" xmlns:xlink="http://www.w3.org/1999/xlink">
    <!-- Generator: sketchtool 3.8.2 (29753) - http://www.bohemiancoding.com/sketch -->
    <title>fooddrinks</title>
    <desc>Created with sketchtool.</desc>
    <defs>
        <path d="M151.854545,55.5309091 L97.0181818,110.367273 L84.0363636,97.4218182 L138.872727,42.5490909 C142.472727,38.9854545 142.472727,33.1672727 138.872727,29.5672727 C135.309091,26.0036364 129.490909,26.0036364 125.890909,29.5672727 L71.0545455,84.44 L58.0727273,71.4581818 L112.945455,16.6218182 C116.509091,13.0218182 116.509091,7.20363636 112.945455,3.64 C109.345455,0.04 103.527273,0.04 99.9636364,3.64 L15.1636364,88.4036364 C-1.74545455,105.349091 -4.50909091,132.876364 10.7636364,151.349091 C28.2545455,172.512727 59.7090909,173.64 78.6545455,154.694545 L164.836364,68.5127273 C168.4,64.9127273 168.4,59.1309091 164.836364,55.5309091 C161.236364,51.9309091 155.454545,51.9309091 151.854545,55.5309091 L151.854545,55.5309091 Z" id="path-1"></path>
        <path d="M-77.0254545,219.549091 L-190.261818,332.785455 C-197.425455,339.949091 -197.425455,351.549091 -190.261818,358.712727 C-183.098182,365.912727 -171.461818,365.912727 -164.298182,358.712727 L-51.0981818,245.476364 L-77.0254545,219.549091 L-77.0254545,219.549091 Z" id="path-3"></path>
        <path d="M-167.218182,0.105454545 C-171.145455,-3.82181818 -177.727273,-3.45818182 -181.072727,1.01454545 C-202.672727,29.7418182 -200.381818,70.7236364 -174.2,96.9054545 L-12.4181818,258.723636 C-8.81818182,262.287273 -3,262.287273 0.563636364,258.723636 L45.9818182,213.305455 L-167.218182,0.105454545 L-167.218182,0.105454545 Z" id="path-5"></path>
        <path d="M165.698182,333.021818 L45.9890909,213.312727 L20.0254545,239.24 L139.734545,358.985455 C146.934545,366.149091 158.534545,366.149091 165.698182,358.985455 C172.861818,351.821818 172.861818,340.185455 165.698182,333.021818 L165.698182,333.021818 Z" id="path-7"></path>
    </defs>
    <g id="Page-1" stroke="none" stroke-width="1" fill="none" fill-rule="evenodd">
        <g id="fooddrinks">
            <g id="item_category_fooddrinks" transform="translate(292.000000, 99.000000)">
                <mask id="mask-2" fill="white">
                    <use xlink:href="#path-1"></use>
                </mask>
                <use id="Clip-2" fill="#000000" xlink:href="#path-1"></use>
                <mask id="mask-4" fill="white">
                    <use xlink:href="#path-3"></use>
                </mask>
                <use id="Clip-5" fill="#000000" xlink:href="#path-3"></use>
                <mask id="mask-6" fill="white">
                    <use xlink:href="#path-5"></use>
                </mask>
                <use id="Clip-8" fill="#000000" xlink:href="#path-5"></use>
                <mask id="mask-8" fill="white">
                    <use xlink:href="#path-7"></use>
                </mask>
                <use id="Clip-11" fill="#000000" xlink:href="#path-7"></use>
            </g>
        </g>
    </g>
</svg>