<?xml version="1.0" encoding="UTF-8" standalone="no"?>
<svg width="560px" height="563px" viewBox="0 0 560 563" version="1.1" xmlns="http://www.w3.org/2000/svg" xmlns:xlink="http://www.w3.org/1999/xlink">
    <!-- Generator: sketchtool 39 (31667) - http://www.bohemiancoding.com/sketch -->
    <title>gear</title>
    <desc>Created with sketchtool.</desc>
    <defs></defs>
    <g id="Page-1" stroke="none" stroke-width="1" fill="none" fill-rule="evenodd">
        <g id="gear" fill="#000000">
            <path d="M280.003333,365.333333 C233.97,365.333333 196.67,328.033333 196.67,282 C196.67,235.966667 233.97,198.666667 280.003333,198.666667 C326.036667,198.666667 363.336667,235.966667 363.336667,282 C363.336667,328.033333 326.036667,365.333333 280.003333,365.333333 M463.336667,248.666667 L426.17,248.666667 C422.37,231.933333 415.77,216.333333 406.903333,202.266667 L433.203333,175.933333 C439.736667,169.433333 439.736667,158.866667 433.203333,152.366667 L409.636667,128.8 C403.136667,122.3 392.57,122.3 386.07,128.8 L359.736667,155.1 C345.67,146.233333 330.036667,139.633333 313.336667,135.833333 L313.336667,98.6666667 C313.336667,89.4666667 305.87,82 296.67,82 L263.336667,82 C254.136667,82 246.67,89.4666667 246.67,98.6666667 L246.67,135.833333 C229.97,139.633333 214.336667,146.233333 200.27,155.1 L173.936667,128.8 C167.436667,122.3 156.87,122.3 150.37,128.8 L126.803333,152.366667 C120.27,158.866667 120.27,169.433333 126.803333,175.933333 L153.103333,202.266667 C144.236667,216.333333 137.636667,231.933333 133.836667,248.666667 L96.67,248.666667 C87.47,248.666667 80.0033333,256.133333 80.0033333,265.333333 L80.0033333,298.666667 C80.0033333,307.866667 87.47,315.333333 96.67,315.333333 L133.836667,315.333333 C137.636667,332.066667 144.236667,347.666667 153.103333,361.733333 L126.803333,388.066667 C120.27,394.566667 120.27,405.133333 126.803333,411.633333 L150.37,435.2 C156.87,441.7 167.436667,441.7 173.936667,435.2 L200.27,408.9 C214.336667,417.766667 229.97,424.366667 246.67,428.166667 L246.67,465.333333 C246.67,474.533333 254.136667,482 263.336667,482 L296.67,482 C305.87,482 313.336667,474.533333 313.336667,465.333333 L313.336667,428.166667 C330.036667,424.366667 345.67,417.766667 359.736667,408.9 L386.07,435.2 C392.57,441.7 403.136667,441.7 409.636667,435.2 L433.203333,411.633333 C439.736667,405.133333 439.736667,394.566667 433.203333,388.066667 L406.903333,361.733333 C415.77,347.666667 422.37,332.066667 426.17,315.333333 L463.336667,315.333333 C472.536667,315.333333 480.003333,307.866667 480.003333,298.666667 L480.003333,265.333333 C480.003333,256.133333 472.536667,248.666667 463.336667,248.666667" id="Fill-1"></path>
        </g>
    </g>
</svg>