<?xml version="1.0" encoding="UTF-8" standalone="no"?>
<svg width="560px" height="563px" viewBox="0 0 560 563" version="1.1" xmlns="http://www.w3.org/2000/svg" xmlns:xlink="http://www.w3.org/1999/xlink">
    <!-- Generator: sketchtool 39 (31667) - http://www.bohemiancoding.com/sketch -->
    <title>heart</title>
    <desc>Created with sketchtool.</desc>
    <defs></defs>
    <g id="Page-1" stroke="none" stroke-width="1" fill="none" fill-rule="evenodd">
        <g id="heart" fill="#000000">
            <g id="new-like-action-filled" transform="translate(80.000000, 101.000000)">
                <path d="M289.096774,0 C252.967742,0 223.16129,11.7419355 200.580645,35.2258065 C178,11.7419355 148.193548,0 112.064516,0 C24.4516129,0 1.87096774,73.1612903 1.87096774,111.096774 C1.87096774,178.83871 35.2903226,242.967742 97.6129032,297.16129 C143.677419,336.903226 189.741935,357.677419 191.548387,358.580645 L193.354839,359.483871 C196.064516,360.387097 197.870968,361.290323 200.580645,361.290323 C203.290323,361.290323 206,360.387097 207.806452,359.483871 L209.612903,358.580645 C211.419355,357.677419 257.483871,336.903226 303.548387,297.16129 C366.774194,242.967742 399.290323,177.935484 399.290323,111.096774 C399.290323,73.1612903 375.806452,2.29207334e-14 289.096774,2.29207334e-14 L289.096774,2.29207334e-14 L289.096774,0 Z" id="Shape"></path>
            </g>
        </g>
    </g>
</svg>