<?xml version="1.0" encoding="UTF-8" standalone="no"?>
<svg width="560px" height="563px" viewBox="0 0 560 563" version="1.1" xmlns="http://www.w3.org/2000/svg" xmlns:xlink="http://www.w3.org/1999/xlink">
    <!-- Generator: sketchtool 3.8.2 (29753) - http://www.bohemiancoding.com/sketch -->
    <title>home-outline</title>
    <desc>Created with sketchtool.</desc>
    <defs></defs>
    <g id="Page-1" stroke="none" stroke-width="1" fill="none" fill-rule="evenodd">
        <g id="home-outline" fill="#000000">
            <g id="home-bottomnav" transform="translate(80.000000, 82.000000)">
                <path d="M392.777778,199.377778 L202.911111,17.0444444 C199.244444,13.5111111 193.422222,13.5777778 189.822222,17.1555556 L124.288889,82.4888889 L124.288889,34.9333333 C124.288889,29.7555556 120.088889,25.5777778 114.933333,25.5777778 C109.777778,25.5777778 105.577778,29.7777778 105.577778,34.9333333 L105.577778,100.933333 L105.577778,101.155556 L7.17777778,199.266667 C3.51111111,202.911111 3.51111111,208.844444 7.15555556,212.511111 C10.8,216.177778 16.7333333,216.177778 20.4,212.533333 L45.9555556,187.044444 L45.9555556,377.533333 C45.9555556,382.711111 50.1555556,386.888889 55.3111111,386.888889 L151.022222,386.888889 C156.2,386.888889 160.377778,382.688889 160.377778,377.533333 L160.377778,268.111111 L232.511111,268.111111 L232.511111,377.533333 C232.511111,382.711111 236.711111,386.888889 241.866667,386.888889 L344.777778,386.888889 C349.955556,386.888889 354.133333,382.688889 354.133333,377.533333 L354.133333,188.2 L379.822222,212.866667 C381.644444,214.6 383.977778,215.466667 386.311111,215.466667 C388.777778,215.466667 391.222222,214.511111 393.066667,212.6 C396.644444,208.866667 396.533333,202.933333 392.8,199.355556 L392.777778,199.377778 Z M335.377778,170.533333 L335.377778,368.177778 L251.2,368.177778 L251.2,258.755556 C251.2,253.577778 247,249.4 241.844444,249.4 L151,249.4 C145.822222,249.4 141.644444,253.6 141.644444,258.755556 L141.644444,368.177778 L64.6666667,368.177778 L64.6666667,170.533333 C64.6666667,169.866667 64.6,169.222222 64.4666667,168.577778 L196.555556,36.8888889 L335.422222,170.244444 C335.422222,170.333333 335.4,170.444444 335.4,170.533333 L335.377778,170.533333 Z" id="Shape"></path>
            </g>
        </g>
    </g>
</svg>