<?xml version="1.0" encoding="UTF-8" standalone="no"?>
<svg width="560px" height="563px" viewBox="0 0 560 563" version="1.1" xmlns="http://www.w3.org/2000/svg" xmlns:xlink="http://www.w3.org/1999/xlink">
    <!-- Generator: sketchtool 39 (31667) - http://www.bohemiancoding.com/sketch -->
    <title>home-outline</title>
    <desc>Created with sketchtool.</desc>
    <defs></defs>
    <g id="Page-1" stroke="none" stroke-width="1" fill="none" fill-rule="evenodd">
        <g id="home-outline" fill="#000000">
            <path d="M472.777778,281.377778 L282.911111,99.0444444 C279.244444,95.5111111 273.422222,95.5777778 269.822222,99.1555556 L204.288889,164.488889 L204.288889,116.933333 C204.288889,111.755556 200.088889,107.577778 194.933333,107.577778 C189.777778,107.577778 185.577778,111.777778 185.577778,116.933333 L185.577778,182.933333 L185.577778,183.155556 L87.1777778,281.266667 C83.5111111,284.911111 83.5111111,290.844444 87.1555556,294.511111 C90.8,298.177778 96.7333333,298.177778 100.4,294.533333 L125.955556,269.044444 L125.955556,459.533333 C125.955556,464.711111 130.155556,468.888889 135.311111,468.888889 L231.022222,468.888889 C236.2,468.888889 240.377778,464.688889 240.377778,459.533333 L240.377778,350.111111 L312.511111,350.111111 L312.511111,459.533333 C312.511111,464.711111 316.711111,468.888889 321.866667,468.888889 L424.777778,468.888889 C429.955556,468.888889 434.133333,464.688889 434.133333,459.533333 L434.133333,270.2 L459.822222,294.866667 C461.644444,296.6 463.977778,297.466667 466.311111,297.466667 C468.777778,297.466667 471.222222,296.511111 473.066667,294.6 C476.644444,290.866667 476.533333,284.933333 472.8,281.355556 L472.777778,281.377778 Z M415.377778,252.533333 L415.377778,450.177778 L331.2,450.177778 L331.2,340.755556 C331.2,335.577778 327,331.4 321.844444,331.4 L231,331.4 C225.822222,331.4 221.644444,335.6 221.644444,340.755556 L221.644444,450.177778 L144.666667,450.177778 L144.666667,252.533333 C144.666667,251.866667 144.6,251.222222 144.466667,250.577778 L276.555556,118.888889 L415.422222,252.244444 C415.422222,252.333333 415.4,252.444444 415.4,252.533333 L415.377778,252.533333 Z" id="Shape"></path>
        </g>
    </g>
</svg>