<?xml version="1.0" encoding="UTF-8" standalone="no"?>
<svg width="560px" height="563px" viewBox="0 0 560 563" version="1.1" xmlns="http://www.w3.org/2000/svg" xmlns:xlink="http://www.w3.org/1999/xlink">
    <!-- Generator: sketchtool 3.8.2 (29753) - http://www.bohemiancoding.com/sketch -->
    <title>home</title>
    <desc>Created with sketchtool.</desc>
    <defs>
        <polygon id="path-1" points="400 371.498889 400 6.28222222 0.00239092873 6.28222222 0.00239092873 371.498889 400 371.498889"></polygon>
    </defs>
    <g id="Page-1" stroke="none" stroke-width="1" fill="none" fill-rule="evenodd">
        <g id="home">
            <g id="achievement_home_feed" transform="translate(80.000000, 93.000000)">
                <mask id="mask-2" fill="white">
                    <use xlink:href="#path-1"></use>
                </mask>
                <g id="Clip-2"></g>
                <path d="M397.452222,200.132222 L206.152222,8.83222222 C202.752222,5.43222222 197.252222,5.43222222 193.852222,8.83222222 L2.55222222,200.132222 C0.0633333333,202.621111 -0.681111111,206.354444 0.663333333,209.61 C2.00777778,212.854444 5.17444444,214.976667 8.69666667,214.976667 L43.4744444,214.976667 L43.4744444,354.11 C43.4744444,363.71 51.2633333,371.498889 60.8744444,371.498889 L165.218889,371.498889 L165.218889,267.154444 C165.218889,257.543333 173.007778,249.754444 182.607778,249.754444 L217.385556,249.754444 C226.996667,249.754444 234.785556,257.543333 234.785556,267.154444 L234.785556,371.498889 L339.13,371.498889 C348.73,371.498889 356.518889,363.71 356.518889,354.11 L356.518889,214.976667 L391.307778,214.976667 C394.818889,214.976667 397.996667,212.854444 399.341111,209.61 C400.685556,206.354444 399.941111,202.621111 397.452222,200.132222" id="Fill-1" fill="#1A1918" mask="url(#mask-2)"></path>
            </g>
        </g>
    </g>
</svg>