<?xml version="1.0" encoding="UTF-8" standalone="no"?>
<svg width="560px" height="563px" viewBox="0 0 560 563" version="1.1" xmlns="http://www.w3.org/2000/svg" xmlns:xlink="http://www.w3.org/1999/xlink">
    <!-- Generator: sketchtool 39 (31667) - http://www.bohemiancoding.com/sketch -->
    <title>home</title>
    <desc>Created with sketchtool.</desc>
    <defs></defs>
    <g id="Page-1" stroke="none" stroke-width="1" fill="none" fill-rule="evenodd">
        <g id="home" fill="#1A1918">
            <path d="M496.30306,294.312326 L286.783597,84.7928627 C283.05978,81.0690458 277.035958,81.0690458 273.312141,84.7928627 L63.7926779,294.312326 C61.0667466,297.038257 60.251401,301.127154 61.7238907,304.69277 C63.1963804,308.246216 66.6646413,310.570559 70.5223209,310.570559 L108.612344,310.570559 L108.612344,462.954989 C108.612344,473.469295 117.143048,482 127.669524,482 L241.951762,482 L241.951762,367.717763 C241.951762,357.191287 250.482466,348.660582 260.996773,348.660582 L299.086796,348.660582 C309.613271,348.660582 318.143976,357.191287 318.143976,367.717763 L318.143976,482 L432.426214,482 C442.94052,482 451.471225,473.469295 451.471225,462.954989 L451.471225,310.570559 L489.573417,310.570559 C493.418927,310.570559 496.899357,308.246216 498.371847,304.69277 C499.844337,301.127154 499.028991,297.038257 496.30306,294.312326" id="Fill-1"></path>
        </g>
    </g>
</svg>