<?xml version="1.0" encoding="UTF-8" standalone="no"?>
<svg width="560px" height="563px" viewBox="0 0 560 563" version="1.1" xmlns="http://www.w3.org/2000/svg" xmlns:xlink="http://www.w3.org/1999/xlink">
    <!-- Generator: sketchtool 3.8.2 (29753) - http://www.bohemiancoding.com/sketch -->
    <title>home</title>
    <desc>Created with sketchtool.</desc>
    <defs></defs>
    <g id="Page-1" stroke="none" stroke-width="1" fill="none" fill-rule="evenodd">
        <g id="home" fill="#000000">
            <g id="home-inverted" transform="translate(80.000000, 82.000000)">
                <path d="M382.26,188.6 L205.7,13.34 C205.58,13.22 205.32,12.96 205.06,12.82 C204.8,12.68 204.68,12.44 204.42,12.3 C204.16,12.18 204.04,12.04 203.78,11.78 C203.52,11.66 203.26,11.4 203.14,11.26 C202.88,11.14 202.76,11 202.5,10.88 C202.24,10.76 201.98,10.62 201.86,10.5 C201.6,10.38 201.34,10.24 201.08,10.12 C200.82,10 200.56,9.86 200.3,9.74 C200.04,9.62 199.78,9.62 199.52,9.48 C199.26,9.34 199,9.36 198.88,9.22 C198.62,9.1 198.36,9.1 198.1,8.96 C197.84,8.96 197.58,8.84 197.46,8.84 C197.2,8.84 196.94,8.72 196.68,8.72 C196.42,8.72 196.16,8.6 196.04,8.6 L195.14,8.6 L194.5,8.6 L193.72,8.6 L192.94,8.6 C192.68,8.6 192.42,8.72 192.16,8.72 C191.9,8.72 191.64,8.72 191.38,8.84 C191.12,8.84 190.86,8.96 190.6,8.96 C190.34,8.96 190.08,9.08 189.82,9.08 C189.56,9.2 189.3,9.2 189.04,9.34 C188.78,9.48 188.52,9.46 188.26,9.6 C188,9.72 187.74,9.86 187.62,9.98 C187.36,10.1 187.1,10.24 186.84,10.36 C186.58,10.48 186.46,10.62 186.2,10.74 C185.94,10.86 185.68,11 185.42,11.12 C185.16,11.24 185.04,11.38 184.78,11.5 C184.52,11.62 184.26,11.88 184.14,12.02 C184.02,12.16 183.76,12.4 183.62,12.54 C183.36,12.8 183.24,12.92 182.98,13.18 L131.12,65.04 L131.12,37.04 C131.12,28.1 123.86,20.84 114.92,20.84 C105.98,20.84 98.72,28.1 98.72,37.04 L98.72,97.58 L6.3,190 C-0.06,196.36 -0.06,206.6 6.3,212.94 C9.42,216.06 13.56,217.74 17.7,217.74 C21.84,217.74 26,216.18 29.1,212.94 L40.24,201.8 L40.24,362.8 C40.24,375.64 50.74,386.14 63.58,386.14 L145.9,386.14 C158.74,386.14 169.24,375.64 169.24,362.8 L169.24,291.24 C169.24,283.6 175.6,277.24 183.24,277.24 L211.24,277.24 C218.88,277.24 225.24,283.6 225.24,291.24 L225.24,362.8 C225.24,375.64 235.74,386.14 248.58,386.14 L330.9,386.14 C343.74,386.14 354.24,375.64 354.24,362.8 L354.24,206.34 L359.68,211.66 C362.8,214.78 366.94,216.32 371.08,216.32 C375.22,216.32 379.38,214.76 382.62,211.52 C388.84,205.16 388.72,194.92 382.36,188.58 L382.26,188.6 Z" id="Shape"></path>
            </g>
        </g>
    </g>
</svg>