<?xml version="1.0" encoding="UTF-8" standalone="no"?>
<svg width="560px" height="563px" viewBox="0 0 560 563" version="1.1" xmlns="http://www.w3.org/2000/svg" xmlns:xlink="http://www.w3.org/1999/xlink">
    <!-- Generator: sketchtool 3.8.2 (29753) - http://www.bohemiancoding.com/sketch -->
    <title>more</title>
    <desc>Created with sketchtool.</desc>
    <defs></defs>
    <g id="Page-1" stroke="none" stroke-width="1" fill="none" fill-rule="evenodd">
        <g id="more" fill="#000000">
            <g id="ooo-action" transform="translate(80.000000, 215.000000)">
                <g id="Group">
                    <path d="M344.833333,15.1333333 C316.533333,15.1333333 293.5,38.1666667 293.5,66.4666667 C293.5,94.7666667 316.533333,117.8 344.833333,117.8 C373.133333,117.8 396.166667,94.7666667 396.166667,66.4666667 C396.166667,38.1666667 373.133333,15.1333333 344.833333,15.1333333 L344.833333,15.1333333 Z M369.833333,66.4666667 C369.833333,80.25 358.616667,91.4666667 344.833333,91.4666667 C331.05,91.4666667 319.833333,80.25 319.833333,66.4666667 C319.833333,52.6833333 331.05,41.4666667 344.833333,41.4666667 C358.616667,41.4666667 369.833333,52.6833333 369.833333,66.4666667 L369.833333,66.4666667 Z" id="Shape"></path>
                    <path d="M200.633333,15.1333333 C172.333333,15.1333333 149.3,38.1666667 149.3,66.4666667 C149.3,94.7666667 172.333333,117.8 200.633333,117.8 C228.933333,117.8 251.966667,94.7666667 251.966667,66.4666667 C251.966667,38.1666667 228.933333,15.1333333 200.633333,15.1333333 L200.633333,15.1333333 Z M200.633333,91.4666667 C186.85,91.4666667 175.633333,80.25 175.633333,66.4666667 C175.633333,52.6833333 186.85,41.4666667 200.633333,41.4666667 C214.416667,41.4666667 225.633333,52.6833333 225.633333,66.4666667 C225.633333,80.25 214.416667,91.4666667 200.633333,91.4666667 L200.633333,91.4666667 Z" id="Shape"></path>
                    <path d="M56.45,15.1333333 C28.15,15.1333333 5.11666667,38.1666667 5.11666667,66.4666667 C5.11666667,94.7666667 28.15,117.8 56.45,117.8 C84.75,117.8 107.783333,94.7666667 107.783333,66.4666667 C107.783333,38.1666667 84.75,15.1333333 56.45,15.1333333 L56.45,15.1333333 Z M81.45,66.4666667 C81.45,80.25 70.2333333,91.4666667 56.45,91.4666667 C42.6666667,91.4666667 31.45,80.25 31.45,66.4666667 C31.45,52.6833333 42.6666667,41.4666667 56.45,41.4666667 C70.2333333,41.4666667 81.45,52.6833333 81.45,66.4666667 L81.45,66.4666667 Z" id="Shape"></path>
                </g>
            </g>
        </g>
    </g>
</svg>