<?xml version="1.0" encoding="UTF-8"?>
<svg width="560px" height="563px" viewBox="0 0 560 563" version="1.1" xmlns="http://www.w3.org/2000/svg" xmlns:xlink="http://www.w3.org/1999/xlink">
    <!-- Generator: sketchtool 40 (33762) - http://www.bohemiancoding.com/sketch -->
    <title>more</title>
    <desc>Created with sketchtool.</desc>
    <defs></defs>
    <g id="Page-1" stroke="none" stroke-width="1" fill="none" fill-rule="evenodd">
        <g id="more" fill="#000000">
            <g id="vault-ooo" transform="translate(80.000000, 227.000000)">
                <g id="Group">
                    <path d="M80.8545455,54.4363636 C80.8545455,75.0727273 64.4545455,91.8 44.2,91.8 C23.9454545,91.8 7.54545455,75.0727273 7.54545455,54.4363636 C7.54545455,33.8 23.9454545,17.0727273 44.2,17.0727273 C64.4545455,17.0727273 80.8545455,33.8 80.8545455,54.4363636 L80.8545455,54.4363636 Z" id="Shape"></path>
                    <path d="M237.127273,54.4363636 C237.127273,75.0727273 220.727273,91.8 200.472727,91.8 C180.218182,91.8 163.818182,75.0727273 163.818182,54.4363636 C163.818182,33.8 180.218182,17.0727273 200.472727,17.0727273 C220.727273,17.0727273 237.127273,33.8 237.127273,54.4363636 L237.127273,54.4363636 Z" id="Shape"></path>
                    <path d="M393.509091,54.4363636 C393.509091,75.0727273 377.109091,91.8 356.854545,91.8 C336.6,91.8 320.2,75.0727273 320.2,54.4363636 C320.2,33.8 336.6,17.0727273 356.854545,17.0727273 C377.109091,17.0727273 393.509091,33.8 393.509091,54.4363636 L393.509091,54.4363636 Z" id="Shape"></path>
                </g>
            </g>
        </g>
    </g>
</svg>