<?xml version="1.0" encoding="UTF-8" standalone="no"?>
<svg width="560px" height="560px" viewBox="0 0 560 560" version="1.1" xmlns="http://www.w3.org/2000/svg" xmlns:xlink="http://www.w3.org/1999/xlink">
    <!-- Generator: sketchtool 3.8.2 (29753) - http://www.bohemiancoding.com/sketch -->
    <title>movie</title>
    <desc>Created with sketchtool.</desc>
    <defs>
        <path d="M280,0 L280,60 C280,72 272,80 260,80 L140,80 C128,80 120,72 120,60 L120,0 L0,0 L0,400 L40,400 L40,360 L80,360 L80,400 L120,400 L120,340 C120,328 128,320 140,320 L260,320 C272,320 280,328 280,340 L280,400 L320,400 L320,360 L360,360 L360,400 L400,400 L400,0 L280,0 L280,0 Z M80,320 L40,320 L40,280 L80,280 L80,320 L80,320 Z M80,240 L40,240 L40,200 L80,200 L80,240 L80,240 Z M80,160 L40,160 L40,120 L80,120 L80,160 L80,160 Z M80,80 L40,80 L40,40 L80,40 L80,80 L80,80 Z M260,280 L140,280 C128,280 120,272 120,260 L120,140 C120,128 128,120 140,120 L260,120 C272,120 280,128 280,140 L280,260 C280,272 272,280 260,280 L260,280 Z M360,320 L320,320 L320,280 L360,280 L360,320 L360,320 Z M360,240 L320,240 L320,200 L360,200 L360,240 L360,240 Z M360,160 L320,160 L320,120 L360,120 L360,160 L360,160 Z M360,80 L320,80 L320,40 L360,40 L360,80 L360,80 Z" id="path-1"></path>
    </defs>
    <g id="Page-1" stroke="none" stroke-width="1" fill="none" fill-rule="evenodd">
        <g id="movie">
            <g id="item_category_movie" transform="translate(80.000000, 80.000000)">
                <mask id="mask-2" fill="white">
                    <use xlink:href="#path-1"></use>
                </mask>
                <use id="Clip-2" fill="#000000" xlink:href="#path-1"></use>
            </g>
        </g>
    </g>
</svg>