<?xml version="1.0" encoding="UTF-8" standalone="no"?>
<svg width="560px" height="560px" viewBox="0 0 560 560" version="1.1" xmlns="http://www.w3.org/2000/svg" xmlns:xlink="http://www.w3.org/1999/xlink">
    <!-- Generator: sketchtool 3.8.3 (29802) - http://www.bohemiancoding.com/sketch -->
    <title>music</title>
    <desc>Created with sketchtool.</desc>
    <defs>
        <path d="M400,300 C400,334 360,360 310,360 C260,360 220,334 220,300 C220,266 260,240 310,240 C328,240 346,244 360,250 L360,88 L180,120 L180,340 C180,374 140,400 90,400 C40,400 0,374 0,340 C0,306 40,280 90,280 C108,280 126,284 140,290 L140,48 L400,0 L400,300 L400,300 Z" id="path-1"></path>
    </defs>
    <g id="Page-1" stroke="none" stroke-width="1" fill="none" fill-rule="evenodd">
        <g id="music">
            <g id="item_category_music" transform="translate(80.000000, 80.000000)">
                <mask id="mask-2" fill="white">
                    <use xlink:href="#path-1"></use>
                </mask>
                <use id="Clip-2" fill="#000000" xlink:href="#path-1"></use>
            </g>
        </g>
    </g>
</svg>