<?xml version="1.0" encoding="UTF-8"?>
<svg width="560px" height="563px" viewBox="0 0 560 563" version="1.1" xmlns="http://www.w3.org/2000/svg" xmlns:xlink="http://www.w3.org/1999/xlink">
    <!-- Generator: sketchtool 40 (33762) - http://www.bohemiancoding.com/sketch -->
    <title>pause-empty</title>
    <desc>Created with sketchtool.</desc>
    <defs></defs>
    <g id="Page-1" stroke="none" stroke-width="1" fill="none" fill-rule="evenodd">
        <g id="pause-empty" fill="#1A1918">
            <g id="Group" transform="translate(130.000000, 132.000000)">
                <path d="M75.2801993,299.439601 L37.9202989,299.439601 C17.2976339,299.439601 0.560398506,282.702366 0.560398506,262.079701 L0.560398506,37.9202989 C0.560398506,17.2976339 17.2976339,0.560398506 37.9202989,0.560398506 L75.2801993,0.560398506 C95.9028643,0.560398506 112.6401,17.2976339 112.6401,37.9202989 L112.6401,262.079701 C112.6401,282.702366 95.9028643,299.439601 75.2801993,299.439601" id="Fill-3"></path>
                <path d="M262.079701,299.439601 L224.719801,299.439601 C204.097136,299.439601 187.3599,282.702366 187.3599,262.079701 L187.3599,37.9202989 C187.3599,17.2976339 204.097136,0.560398506 224.719801,0.560398506 L262.079701,0.560398506 C282.702366,0.560398506 299.439601,17.2976339 299.439601,37.9202989 L299.439601,262.079701 C299.439601,282.702366 282.702366,299.439601 262.079701,299.439601" id="Fill-5"></path>
            </g>
        </g>
    </g>
</svg>