<?xml version="1.0" encoding="UTF-8" standalone="no"?>
<svg width="560px" height="563px" viewBox="0 0 560 563" version="1.1" xmlns="http://www.w3.org/2000/svg" xmlns:xlink="http://www.w3.org/1999/xlink">
    <!-- Generator: sketchtool 39 (31667) - http://www.bohemiancoding.com/sketch -->
    <title>pause</title>
    <desc>Created with sketchtool.</desc>
    <defs></defs>
    <g id="Page-1" stroke="none" stroke-width="1" fill="none" fill-rule="evenodd">
        <g id="pause" fill="#1A1918">
            <g id="item_preview_pause_button" transform="translate(80.000000, 82.000000)">
                <path d="M200,0 C89.5454545,0 0,89.5454545 0,200 C0,310.454545 89.5454545,400 200,400 C310.454545,400 400,310.454545 400,200 C400,89.5454545 310.454545,0 200,0 M200,18.1818182 C300.254545,18.1818182 381.818182,99.7454545 381.818182,200 C381.818182,300.254545 300.254545,381.818182 200,381.818182 C99.7454545,381.818182 18.1818182,300.254545 18.1818182,200 C18.1818182,99.7454545 99.7454545,18.1818182 200,18.1818182" id="Fill-1"></path>
                <path d="M163.636364,272.727273 L145.454545,272.727273 C135.418182,272.727273 127.272727,264.581818 127.272727,254.545455 L127.272727,145.454545 C127.272727,135.418182 135.418182,127.272727 145.454545,127.272727 L163.636364,127.272727 C173.672727,127.272727 181.818182,135.418182 181.818182,145.454545 L181.818182,254.545455 C181.818182,264.581818 173.672727,272.727273 163.636364,272.727273" id="Fill-3"></path>
                <path d="M254.545455,272.727273 L236.363636,272.727273 C226.327273,272.727273 218.181818,264.581818 218.181818,254.545455 L218.181818,145.454545 C218.181818,135.418182 226.327273,127.272727 236.363636,127.272727 L254.545455,127.272727 C264.581818,127.272727 272.727273,135.418182 272.727273,145.454545 L272.727273,254.545455 C272.727273,264.581818 264.581818,272.727273 254.545455,272.727273" id="Fill-5"></path>
            </g>
        </g>
    </g>
</svg>