<?xml version="1.0" encoding="UTF-8" standalone="no"?>
<svg width="560px" height="560px" viewBox="0 0 560 560" version="1.1" xmlns="http://www.w3.org/2000/svg" xmlns:xlink="http://www.w3.org/1999/xlink">
    <!-- Generator: sketchtool 3.8.2 (29753) - http://www.bohemiancoding.com/sketch -->
    <title>places</title>
    <desc>Created with sketchtool.</desc>
    <defs>
        <path d="M150.176375,199.695709 C122.68351,199.695709 100.370461,177.332783 100.370461,149.778463 C100.370461,122.224143 122.68351,99.8612168 150.176375,99.8612168 C177.669239,99.8612168 199.982288,122.224143 199.982288,149.778463 C199.982288,177.332783 177.669239,199.695709 150.176375,199.695709 L150.176375,199.695709 L150.176375,199.695709 Z M150.176375,0.0267249255 C67.6579365,0.0267249255 0.758633124,67.0755697 0.758633124,149.778463 C0.758633124,181.565765 10.6401264,211.036907 27.4944476,235.276722 L136.429942,392.016874 C139.378452,396.449525 144.438733,399.364692 150.176375,399.364692 C155.914016,399.364692 160.974297,396.449525 163.922807,392.016874 L272.858301,235.276722 C289.712623,211.036907 299.594116,181.565765 299.594116,149.778463 C299.594116,67.0755697 232.694812,0.0267249255 150.176375,0.0267249255 L150.176375,0.0267249255 L150.176375,0.0267249255 Z" id="path-1"></path>
    </defs>
    <g id="Page-1" stroke="none" stroke-width="1" fill="none" fill-rule="evenodd">
        <g id="places">
            <g id="item_category_places" transform="translate(130.000000, 80.000000)">
                <mask id="mask-2" fill="white">
                    <use xlink:href="#path-1"></use>
                </mask>
                <use id="Clip-2" fill="#000000" xlink:href="#path-1"></use>
            </g>
        </g>
    </g>
</svg>