<?xml version="1.0" encoding="UTF-8"?>
<svg width="560px" height="563px" viewBox="0 0 560 563" version="1.1" xmlns="http://www.w3.org/2000/svg" xmlns:xlink="http://www.w3.org/1999/xlink">
    <!-- Generator: sketchtool 40 (33762) - http://www.bohemiancoding.com/sketch -->
    <title>play</title>
    <desc>Created with sketchtool.</desc>
    <defs></defs>
    <g id="Page-1" stroke="none" stroke-width="1" fill="none" fill-rule="evenodd">
        <g id="play" fill="#1A1918">
            <g id="item_preview_play_button" transform="translate(80.000000, 82.000000)">
                <path d="M200,0 C89.5454545,0 0,89.5454545 0,200 C0,310.454545 89.5454545,400 200,400 C310.454545,400 400,310.454545 400,200 C400,89.5454545 310.454545,0 200,0 M200,18.1818182 C300.254545,18.1818182 381.818182,99.7454545 381.818182,200 C381.818182,300.254545 300.254545,381.818182 200,381.818182 C99.7454545,381.818182 18.1818182,300.254545 18.1818182,200 C18.1818182,99.7454545 99.7454545,18.1818182 200,18.1818182" id="Fill-1"></path>
                <path d="M159.090909,123.892727 L277.272727,192.129091 C283.327273,195.62 283.327273,204.365455 277.272727,207.874545 L159.090909,276.110909 C153.036364,279.601818 145.454545,275.238182 145.454545,268.238182 L145.454545,131.765455 C145.454545,124.765455 153.036364,120.401818 159.090909,123.892727" id="Fill-3"></path>
            </g>
        </g>
    </g>
</svg>