<?xml version="1.0" encoding="UTF-8"?>
<svg width="560px" height="563px" viewBox="0 0 560 563" version="1.1" xmlns="http://www.w3.org/2000/svg" xmlns:xlink="http://www.w3.org/1999/xlink">
    <!-- Generator: sketchtool 40 (33762) - http://www.bohemiancoding.com/sketch -->
    <title>plus-circle</title>
    <desc>Created with sketchtool.</desc>
    <defs></defs>
    <g id="Page-1" stroke="none" stroke-width="1" fill="none" fill-rule="evenodd">
        <g id="plus-circle">
            <g id="item_preview_pause_button" transform="translate(80.000000, 82.000000)" fill="#1A1918">
                <path d="M200,0 C89.5454545,0 0,89.5454545 0,200 C0,310.454545 89.5454545,400 200,400 C310.454545,400 400,310.454545 400,200 C400,89.5454545 310.454545,0 200,0 M200,18.1818182 C300.254545,18.1818182 381.818182,99.7454545 381.818182,200 C381.818182,300.254545 300.254545,381.818182 200,381.818182 C99.7454545,381.818182 18.1818182,300.254545 18.1818182,200 C18.1818182,99.7454545 99.7454545,18.1818182 200,18.1818182" id="Fill-1"></path>
            </g>
            <g id="create_add_image" transform="translate(180.000000, 182.000000)" fill="#000000">
                <path d="M179.92008,119.98002 L20.0799201,119.98002 C9.05094905,119.98002 0.0999000999,111.028971 0.0999000999,100 L0.0999000999,100 C0.0999000999,88.971029 9.05094905,80.01998 20.0799201,80.01998 L179.92008,80.01998 C190.949051,80.01998 199.9001,88.971029 199.9001,100 L199.9001,100 C199.9001,111.028971 190.949051,119.98002 179.92008,119.98002" id="Fill-3"></path>
                <path d="M119.98002,20.0799201 L119.98002,179.92008 C119.98002,190.949051 111.028971,199.9001 100,199.9001 L100,199.9001 C88.971029,199.9001 80.01998,190.949051 80.01998,179.92008 L80.01998,20.0799201 C80.01998,9.05094905 88.971029,0.0999000999 100,0.0999000999 L100,0.0999000999 C111.028971,0.0999000999 119.98002,9.05094905 119.98002,20.0799201" id="Fill-5"></path>
            </g>
        </g>
    </g>
</svg>