<?xml version="1.0" encoding="UTF-8" standalone="no"?>
<svg width="560px" height="563px" viewBox="0 0 560 563" version="1.1" xmlns="http://www.w3.org/2000/svg" xmlns:xlink="http://www.w3.org/1999/xlink">
    <!-- Generator: sketchtool 39 (31667) - http://www.bohemiancoding.com/sketch -->
    <title>plus</title>
    <desc>Created with sketchtool.</desc>
    <defs></defs>
    <g id="Page-1" stroke="none" stroke-width="1" fill="none" fill-rule="evenodd">
        <g id="plus" fill="#000000">
            <g id="create_add_image" transform="translate(80.000000, 82.000000)">
                <path d="M359.84016,239.96004 L40.1598402,239.96004 C18.1018981,239.96004 0.1998002,222.057942 0.1998002,200 L0.1998002,200 C0.1998002,177.942058 18.1018981,160.03996 40.1598402,160.03996 L359.84016,160.03996 C381.898102,160.03996 399.8002,177.942058 399.8002,200 L399.8002,200 C399.8002,222.057942 381.898102,239.96004 359.84016,239.96004" id="Fill-3"></path>
                <path d="M239.96004,40.1598402 L239.96004,359.84016 C239.96004,381.898102 222.057942,399.8002 200,399.8002 L200,399.8002 C177.942058,399.8002 160.03996,381.898102 160.03996,359.84016 L160.03996,40.1598402 C160.03996,18.1018981 177.942058,0.1998002 200,0.1998002 L200,0.1998002 C222.057942,0.1998002 239.96004,18.1018981 239.96004,40.1598402" id="Fill-5"></path>
            </g>
        </g>
    </g>
</svg>