<?xml version="1.0" encoding="UTF-8" standalone="no"?>
<svg width="560px" height="560px" viewBox="0 0 560 560" version="1.1" xmlns="http://www.w3.org/2000/svg" xmlns:xlink="http://www.w3.org/1999/xlink">
    <!-- Generator: sketchtool 3.8.3 (29802) - http://www.bohemiancoding.com/sketch -->
    <title>podcasts</title>
    <desc>Created with sketchtool.</desc>
    <defs>
        <path d="M123.08164,33.33332 C147.57144,33.33332 170.42856,43.33332 186.75512,60 C203.08164,76.66668 212.87756,100 212.87756,125 C212.87756,145 206.34692,164.16668 195.73468,179.16668 C190.83672,185.83332 191.65308,195 197.36736,200.83332 C204.71428,208.33332 216.14284,207.5 221.85716,199.16668 C236.55104,178.33332 245.5306,152.5 245.5306,125 C245.5306,90.83332 231.65308,59.16668 209.61224,36.66668 C187.57144,14.16668 156.55104,0 123.08164,0 C89.61224,0 58.59184,14.16668 36.55104,36.66668 C14.5102,59.16668 0.63264,90.83332 0.63264,125 C0.63264,152.5 9.61224,178.33332 24.30612,199.16668 C30.0204,207.5 42.26532,207.5 48.79592,200.83332 C54.5102,195 55.32652,185.83332 50.42856,179.16668 C39.81632,164.16668 33.28572,145 33.28572,125 C33.28572,100 43.08164,76.66668 59.40816,60 C75.73468,43.33332 98.59184,33.33332 123.08164,33.33332 L123.08164,33.33332 Z" id="path-1"></path>
        <path d="M123.08164,166.66668 C145.62388,166.66668 163.89796,148.01188 163.89796,125 C163.89796,101.98812 145.62388,83.33332 123.08164,83.33332 C100.5394,83.33332 82.26532,101.98812 82.26532,125 C82.26532,148.01188 100.5394,166.66668 123.08164,166.66668 L123.08164,166.66668 Z" id="path-3"></path>
        <path d="M123.08164,-41.66668 C167.9796,-41.66668 208.79592,-23.33332 238.18368,7.5 C267.57144,37.5 286.34692,79.16668 286.34692,125 C286.34692,165.83332 271.65308,203.33332 247.9796,231.66668 C242.26532,238.33332 243.08164,247.5 248.79592,254.16668 C255.32652,260.83332 266.75512,260.83332 273.28572,253.33332 C301.85716,218.33332 319,174.16668 319,125 C319,70 296.9592,20 261.85716,-16.66668 C226.75512,-52.5 177.77552,-75 123.08164,-75 C69.20408,-75 20.22448,-52.5 -15.69388,-16.66668 C-50.79592,19.16668 -72.836736,69.16668 -72.836736,125 C-72.836736,173.33332 -55.693876,218.33332 -27.12244,253.33332 C-20.59184,260.83332 -9.9796,261.66668 -2.63264,254.16668 C3.08164,248.33332 3.89796,238.33332 -1.81632,231.66668 C-25.4898,202.5 -40.18368,165.83332 -40.18368,125 C-40.18368,79.16668 -22.22448,37.5 7.9796,7.5 C37.36736,-23.33332 78.18368,-41.66668 123.08164,-41.66668 L123.08164,-41.66668 Z" id="path-5"></path>
        <path d="M115.73468,191.66668 L130.42856,191.66668 C151.65308,191.66668 167.16328,211.66668 162.26532,233.33332 L143.4898,309.166668 C141.0408,318.333332 132.87756,325 123.08164,325 C113.28572,325 105.12244,318.333332 102.67348,309.166668 L83.89796,233.33332 C79,211.66668 94.5102,191.66668 115.73468,191.66668 L115.73468,191.66668 Z" id="path-7"></path>
    </defs>
    <g id="Page-1" stroke="none" stroke-width="1" fill="none" fill-rule="evenodd">
        <g id="podcasts">
            <g id="item_category_podcasts" transform="translate(161.000000, 155.000000)">
                <mask id="mask-2" fill="white">
                    <use xlink:href="#path-1"></use>
                </mask>
                <use id="Clip-2" fill="#000000" xlink:href="#path-1"></use>
                <mask id="mask-4" fill="white">
                    <use xlink:href="#path-3"></use>
                </mask>
                <use id="Clip-5" fill="#000000" xlink:href="#path-3"></use>
                <mask id="mask-6" fill="white">
                    <use xlink:href="#path-5"></use>
                </mask>
                <use id="Clip-8" fill="#000000" xlink:href="#path-5"></use>
                <mask id="mask-8" fill="white">
                    <use xlink:href="#path-7"></use>
                </mask>
                <use id="Clip-11" fill="#000000" xlink:href="#path-7"></use>
            </g>
        </g>
    </g>
</svg>