<?xml version="1.0" encoding="UTF-8" standalone="no"?>
<svg width="560px" height="563px" viewBox="0 0 560 563" version="1.1" xmlns="http://www.w3.org/2000/svg" xmlns:xlink="http://www.w3.org/1999/xlink">
    <!-- Generator: sketchtool 39 (31667) - http://www.bohemiancoding.com/sketch -->
    <title>refresh</title>
    <desc>Created with sketchtool.</desc>
    <defs></defs>
    <g id="Page-1" stroke="none" stroke-width="1" fill="none" fill-rule="evenodd">
        <g id="refresh" fill="#000000">
            <g id="spinner11" transform="translate(80.000000, 82.000000)">
                <path d="M400,150 L250,150 L306.0625,93.9375 C277.725,65.6125 240.0625,50 200,50 C159.9375,50 122.2625,65.6 93.9375,93.9375 C65.6125,122.275 50,159.9375 50,200 C50,240.0625 65.6,277.7375 93.9375,306.0625 C122.275,334.3875 159.9375,350 200,350 C240.0625,350 277.7375,334.4 306.0625,306.0625 C308.425,303.7 310.7,301.2625 312.8875,298.775 L350.5125,331.7 C313.85,373.5625 260.025,400 200,400 C89.5375,400 -4.4408921e-14,310.4625 -4.4408921e-14,200 C-4.4408921e-14,89.5375 89.5375,0 200,0 C255.225,0 305.225,22.3875 341.4125,58.5875 L400,0 L400,150 L400,150 Z" id="Shape"></path>
            </g>
        </g>
    </g>
</svg>