<?xml version="1.0" encoding="UTF-8"?>
<svg width="560px" height="563px" viewBox="0 0 560 563" version="1.1" xmlns="http://www.w3.org/2000/svg" xmlns:xlink="http://www.w3.org/1999/xlink">
    <!-- Generator: sketchtool 40 (33762) - http://www.bohemiancoding.com/sketch -->
    <title>square-loop</title>
    <desc>Created with sketchtool.</desc>
    <defs></defs>
    <g id="Page-1" stroke="none" stroke-width="1" fill="none" fill-rule="evenodd">
        <g id="square-loop" fill="#000000">
            <g id="new-rerex-action" transform="translate(101.000000, 82.000000)">
                <g id="Group">
                    <path d="M82.6285714,70.2714286 C46.1,70.2714286 24.7857143,92.7142857 24.7857143,131.142857 L24.7857143,192 C24.7857143,196.8 24.3571429,200.7 28.9142857,200.7 L37.1571429,200.7 C41.7285714,200.7 41.3,196.8 41.3,192 L41.3,131.142857 C41.4714286,98.6857143 56.9857143,88.4428571 82.6142857,87.6571429 L333.928571,87.6571429 L333.928571,70.2571429 L82.6142857,70.2571429 L82.6285714,70.2714286 Z" id="Shape"></path>
                    <path d="M326.385714,200.7 C321.828571,200.7 322.257143,204.6 322.257143,209.414286 L322.257143,270.271429 C322.257143,289.485714 316.4,313.128571 280.942857,313.757143 L29.6285714,313.757143 L29.6285714,331.157143 L280.942857,331.157143 C317.442857,331.157143 338.785714,308.7 338.785714,270.285714 L338.785714,209.428571 C338.785714,204.614286 339.214286,200.714286 334.642857,200.714286 L326.4,200.714286 L326.385714,200.7 Z" id="Shape"></path>
                    <path d="M68.5142857,255.442857 L10.6857143,316.314286 C7.45714286,319.7 7.45714286,325.214286 10.6857143,328.614286 L68.5142857,389.485714 C71.7428571,392.9 76.9714286,392.9 80.2,389.485714 L83.6428571,385.871429 C86.8428571,382.5 86.8428571,376.985714 83.6428571,373.585714 L35.0714286,322.471429 L83.6428571,271.328571 C86.8428571,267.942857 86.8428571,262.428571 83.6428571,259.028571 L80.2,255.428571 C78.6,253.728571 76.4857143,252.871429 74.3428571,252.871429 C72.2285714,252.871429 70.1142857,253.728571 68.5142857,255.428571 L68.5142857,255.428571 L68.5142857,255.428571 L68.5142857,255.442857 Z" id="Shape"></path>
                    <path d="M283.357143,11.9142857 L279.914286,15.5285714 C276.714286,18.9142857 276.714286,24.4142857 279.914286,27.8285714 L328.528571,78.9428571 L279.914286,130.057143 C276.714286,133.471429 276.714286,138.985714 279.914286,142.371429 L283.357143,145.971429 C286.585714,149.357143 291.814286,149.357143 295.042857,145.971429 L352.885714,85.1 C356.114286,81.6857143 356.114286,76.2 352.885714,72.7857143 L295.042857,11.9142857 C293.442857,10.2285714 291.328571,9.37142857 289.214286,9.37142857 C287.1,9.37142857 284.971429,10.2285714 283.357143,11.9142857 L283.357143,11.9142857 L283.357143,11.9142857 L283.357143,11.9142857 Z" id="Shape"></path>
                </g>
            </g>
        </g>
    </g>
</svg>