<?xml version="1.0" encoding="UTF-8" standalone="no"?>
<svg width="560px" height="560px" viewBox="0 0 560 560" version="1.1" xmlns="http://www.w3.org/2000/svg" xmlns:xlink="http://www.w3.org/1999/xlink">
    <!-- Generator: sketchtool 39 (31667) - http://www.bohemiancoding.com/sketch -->
    <title>television</title>
    <desc>Created with sketchtool.</desc>
    <defs>
        <path d="M380,0 L20,0 C8,0 0,8 0,20 L0,280 C0,292 8,300 20,300 L160,300 L160,340 C160,352 152,360 140,360 L80,360 L80,400 L320,400 L320,360 L260,360 C248,360 240,352 240,340 L240,300 L380,300 C392,300 400,292 400,280 L400,20 C400,8 392,0 380,0 L380,0 Z M360,260 L40,260 L40,40 L360,40 L360,260 L360,260 Z" id="path-1"></path>
    </defs>
    <g id="Page-1" stroke="none" stroke-width="1" fill="none" fill-rule="evenodd">
        <g id="television">
            <g id="item_category_tvshow" transform="translate(80.000000, 80.000000)">
                <mask id="mask-2" fill="white">
                    <use xlink:href="#path-1"></use>
                </mask>
                <use id="Clip-2" fill="#000000" xlink:href="#path-1"></use>
            </g>
        </g>
    </g>
</svg>