<?xml version="1.0" encoding="UTF-8"?>
<svg width="560px" height="563px" viewBox="0 0 560 563" version="1.1" xmlns="http://www.w3.org/2000/svg" xmlns:xlink="http://www.w3.org/1999/xlink">
    <!-- Generator: sketchtool 40 (33762) - http://www.bohemiancoding.com/sketch -->
    <title>triangle-exclamation</title>
    <desc>Created with sketchtool.</desc>
    <defs></defs>
    <g id="Page-1" stroke="none" stroke-width="1" fill="none" fill-rule="evenodd">
        <g id="triangle-exclamation" fill="#000000">
            <g id="exclamation-triangle" transform="translate(110.000000, 132.000000)">
                <path d="M192.86,245.54 L192.86,211.61 C192.86,209.943333 192.293333,208.543333 191.16,207.41 C190.026667,206.276667 188.686667,205.71 187.14,205.71 L152.85,205.71 C151.303333,205.71 149.963333,206.276667 148.83,207.41 C147.696667,208.543333 147.13,209.943333 147.13,211.61 L147.13,245.54 C147.13,247.206667 147.696667,248.606667 148.83,249.74 C149.963333,250.873333 151.303333,251.44 152.85,251.44 L187.14,251.44 C188.686667,251.44 190.026667,250.873333 191.16,249.74 C192.293333,248.606667 192.86,247.206667 192.86,245.54 L192.86,245.54 Z M192.5,178.75 L195.71,96.79 C195.71,95.3633333 195.113333,94.2333333 193.92,93.4 C192.373333,92.0933333 190.943333,91.44 189.63,91.44 L150.34,91.44 C149.033333,91.44 147.603333,92.0933333 146.05,93.4 C144.856667,94.2333333 144.26,95.4833333 144.26,97.15 L147.3,178.76 C147.3,179.953333 147.896667,180.936667 149.09,181.71 C150.283333,182.483333 151.713333,182.87 153.38,182.87 L186.42,182.87 C188.086667,182.87 189.486667,182.483333 190.62,181.71 C191.753333,180.936667 192.38,179.953333 192.5,178.76 L192.5,178.75 Z M190,11.96 L327.14,263.39 C331.306667,270.89 331.186667,278.39 326.78,285.89 C324.753333,289.343333 321.986667,292.08 318.48,294.1 C314.973333,296.12 311.193333,297.133333 307.14,297.14 L32.85,297.14 C28.8033333,297.14 25.0233333,296.126667 21.51,294.1 C17.9966667,292.073333 15.23,289.336667 13.21,285.89 C8.80333333,278.39 8.68333333,270.89 12.85,263.39 L149.99,11.96 C152.016667,8.26666667 154.813333,5.35 158.38,3.21 C161.946667,1.07 165.816667,1.53580852e-14 169.99,1.49880108e-14 C174.163333,1.46179365e-14 178.033333,1.07 181.6,3.21 C185.166667,5.35 187.963333,8.26666667 189.99,11.96 L190,11.96 Z" id="Shape"></path>
            </g>
        </g>
    </g>
</svg>