<?xml version="1.0" encoding="UTF-8" standalone="no"?>
<svg width="560px" height="563px" viewBox="0 0 560 563" version="1.1" xmlns="http://www.w3.org/2000/svg" xmlns:xlink="http://www.w3.org/1999/xlink">
    <!-- Generator: sketchtool 39 (31667) - http://www.bohemiancoding.com/sketch -->
    <title>twitter</title>
    <desc>Created with sketchtool.</desc>
    <defs></defs>
    <g id="Page-1" stroke="none" stroke-width="1" fill="none" fill-rule="evenodd">
        <g id="twitter" fill="#000000">
            <g transform="translate(38.000000, 82.000000)" id="Shape">
                <path d="M482.15,54.7666667 C468.861111,74.2111111 452.788889,90.7777778 433.933333,104.466667 C434.133333,107.244444 434.233333,111.411111 434.233333,116.966667 C434.233333,142.755556 430.461111,168.5 422.916667,194.2 C415.372222,219.9 403.911111,244.55 388.533333,268.15 C373.155556,291.75 354.85,312.633333 333.616667,330.8 C312.383333,348.966667 286.788889,363.45 256.833333,374.25 C226.877778,385.05 194.833333,390.455556 160.7,390.466667 C106.933333,390.466667 57.7277778,376.083333 13.0833333,347.316667 C20.0277778,348.105556 27.7666667,348.5 36.3,348.5 C80.9444444,348.5 120.727778,334.811111 155.65,307.433333 C134.816667,307.033333 116.166667,300.633333 99.7,288.233333 C83.2333333,275.833333 71.9222222,260.011111 65.7666667,240.766667 C72.3111111,241.755556 78.3611111,242.25 83.9166667,242.25 C92.45,242.25 100.883333,241.161111 109.216667,238.983333 C86.9944444,234.416667 68.5888889,223.355556 54,205.8 C39.4111111,188.244444 32.1166667,167.855556 32.1166667,144.633333 L32.1166667,143.45 C45.6055556,150.994444 60.0888889,155.061111 75.5666667,155.65 C62.4666667,146.916667 52.05,135.505556 44.3166667,121.416667 C36.5833333,107.327778 32.7166667,92.05 32.7166667,75.5833333 C32.7166667,58.1277778 37.0833333,41.9555556 45.8166667,27.0666667 C69.8277778,56.6333333 99.0444444,80.2944444 133.466667,98.05 C167.888889,115.805556 204.744444,125.677778 244.033333,127.666667 C242.444444,120.122222 241.65,112.783333 241.65,105.65 C241.65,79.0611111 251.027778,56.3944444 269.783333,37.65 C288.538889,18.9055556 311.205556,9.52777778 337.783333,9.51666667 C365.561111,9.51666667 388.972222,19.6333333 408.016667,39.8666667 C429.638889,35.7 449.977778,27.9611111 469.033333,16.65 C461.688889,39.4722222 447.6,57.1333333 426.766667,69.6333333 C445.222222,67.6444444 463.672222,62.6833333 482.116667,54.75 L482.15,54.7666667 Z"></path>
            </g>
        </g>
    </g>
</svg>