<?xml version="1.0" encoding="UTF-8"?>
<svg width="560px" height="563px" viewBox="0 0 560 563" version="1.1" xmlns="http://www.w3.org/2000/svg" xmlns:xlink="http://www.w3.org/1999/xlink">
    <!-- Generator: sketchtool 40 (33762) - http://www.bohemiancoding.com/sketch -->
    <title>upload</title>
    <desc>Created with sketchtool.</desc>
    <defs></defs>
    <g id="Page-1" stroke="none" stroke-width="1" fill="none" fill-rule="evenodd">
        <g id="upload" fill="#000000">
            <g id="cloud-upload" transform="translate(80.000000, 122.000000)">
                <path d="M256,16 C275.498667,16 294.144,19.8133333 311.936,27.44 C329.728,35.0666667 345.04,45.296 357.872,58.128 C370.704,70.96 380.933333,86.272 388.56,104.064 C396.186667,121.856 400,140.501333 400,160 C400,178.165333 396.688,195.621333 390.064,212.368 C383.44,229.114667 374.437333,243.781333 363.056,256.368 C351.674667,268.954667 338.090667,279.392 322.304,287.68 C306.517333,295.968 289.744,301.114667 271.984,303.12 L271.984,270.864 C289.904,268.282667 306.176,261.802667 320.8,251.424 C335.424,241.045333 346.944,227.834667 355.36,211.792 C363.776,195.749333 367.984,178.48 367.984,159.984 C367.984,144.816 365.024,130.314667 359.104,116.48 C353.184,102.645333 345.226667,90.7306667 335.232,80.736 C325.237333,70.7413333 313.322667,62.784 299.488,56.864 C285.653333,50.944 271.152,47.984 255.984,47.984 C242.149333,47.984 228.837333,50.464 216.048,55.424 C203.258667,60.384 192.010667,67.1146667 182.304,75.616 C172.597333,84.1173333 164.474667,94.2826667 157.936,106.112 C151.397333,117.941333 147.168,130.565333 145.248,143.984 L112,143.984 C94.336,143.984 79.2533333,150.234667 66.752,162.736 C54.2506667,175.237333 48,190.32 48,207.984 C48,217.648 49.8933333,226.608 53.68,234.864 C57.4666667,243.12 62.448,249.893333 68.624,255.184 C74.8,260.474667 81.6533333,264.597333 89.184,267.552 C96.7146667,270.506667 104.32,271.984 112,271.984 L176,271.984 L176,303.984 L112,303.984 C94.5813333,303.984 78.5173333,299.690667 63.808,291.104 C49.0986667,282.517333 37.4506667,270.869333 28.864,256.16 C20.2773333,241.450667 15.984,225.386667 15.984,207.968 C15.984,190.549333 20.2773333,174.485333 28.864,159.776 C37.4506667,145.066667 49.0986667,133.418667 63.808,124.832 C78.5173333,116.245333 94.5813333,111.952 112,111.952 L120.256,111.952 C126.837333,93.3706667 136.752,76.848 150,62.384 C163.248,47.92 179.104,36.5653333 197.568,28.32 C216.032,20.0746667 235.509333,15.952 256,15.952 L256,16 Z M224,144 C228.416,144 232.208,145.584 235.376,148.752 L283.376,196.752 C286.458667,199.834667 288,203.584 288,208 C288,212.586667 286.48,216.4 283.44,219.44 C280.4,222.48 276.586667,224 272,224 C267.498667,224 263.706667,222.458667 260.624,219.376 L240,198.624 L240,304 C240,308.416 238.437333,312.186667 235.312,315.312 C232.186667,318.437333 228.416,320 224,320 C219.584,320 215.813333,318.437333 212.688,315.312 C209.562667,312.186667 208,308.416 208,304 L208,198.624 L187.376,219.376 C184.293333,222.458667 180.501333,224 176,224 C171.584,224 167.813333,222.437333 164.688,219.312 C161.562667,216.186667 160,212.416 160,208 C160,203.754667 161.541333,200.005333 164.624,196.752 L212.624,148.752 C215.792,145.584 219.584,144 224,144 L224,144 Z" id="Shape"></path>
            </g>
        </g>
    </g>
</svg>