<?xml version="1.0" encoding="UTF-8" standalone="no"?>
<svg width="560px" height="560px" viewBox="0 0 560 560" version="1.1" xmlns="http://www.w3.org/2000/svg" xmlns:xlink="http://www.w3.org/1999/xlink">
    <!-- Generator: sketchtool 3.8.2 (29753) - http://www.bohemiancoding.com/sketch -->
    <title>webvideo</title>
    <desc>Created with sketchtool.</desc>
    <defs>
        <path d="M502.777778,80.3333333 C502.777778,80.3333333 498.333333,42.5555556 482.777778,27 C462.777778,4.77777778 440.555556,4.77777778 431.666667,4.77777778 C360.555556,0.333333333 253.888889,0.333333333 253.888889,0.333333333 C253.888889,0.333333333 147.222222,0.333333333 76.1111111,4.77777778 C67.2222222,7 45,7 25,27 C9.44444444,42.5555556 5,80.3333333 5,80.3333333 C5,80.3333333 0.555555556,124.777778 0.555555556,167 L0.555555556,207 C0.555555556,251.444444 5,293.666667 5,293.666667 C5,293.666667 9.44444444,331.444444 25,347 C45,369.222222 69.4444444,367 80.5555556,369.222222 C120.555556,373.666667 253.888889,373.666667 253.888889,373.666667 C253.888889,373.666667 360.555556,373.666667 433.888889,367 C442.777778,364.777778 465,364.777778 485,344.777778 C500.555556,329.222222 505,291.444444 505,291.444444 C505,291.444444 509.444444,247 509.444444,204.777778 L509.444444,164.777778 C507.222222,122.555556 502.777778,80.3333333 502.777778,80.3333333 L502.777778,80.3333333 Z M185,280.333333 L185,91.4444444 L340.555556,184.777778 L185,280.333333 L185,280.333333 Z" id="path-1"></path>
    </defs>
    <g id="Page-1" stroke="none" stroke-width="1" fill="none" fill-rule="evenodd">
        <g id="webvideo">
            <g id="item_category_webvideo" transform="translate(28.000000, 93.000000)">
                <mask id="mask-2" fill="white">
                    <use xlink:href="#path-1"></use>
                </mask>
                <use id="Clip-2" fill="#000000" xlink:href="#path-1"></use>
            </g>
        </g>
    </g>
</svg>