<?xml version="1.0" encoding="UTF-8" standalone="no"?>
<svg width="560px" height="560px" viewBox="0 0 560 560" version="1.1" xmlns="http://www.w3.org/2000/svg" xmlns:xlink="http://www.w3.org/1999/xlink">
    <!-- Generator: sketchtool 3.8.2 (29753) - http://www.bohemiancoding.com/sketch -->
    <title>webvideo</title>
    <desc>Created with sketchtool.</desc>
    <defs>
        <path d="M394.335512,63.0065359 C394.335512,63.0065359 390.849673,33.3769063 378.649237,21.1764706 C362.962963,3.74727669 345.533769,3.74727669 338.562092,3.74727669 C282.788671,0.261437908 199.12854,0.261437908 199.12854,0.261437908 C199.12854,0.261437908 115.46841,0.261437908 59.6949891,3.74727669 C52.7233115,5.49019608 35.2941176,5.49019608 19.6078431,21.1764706 C7.40740741,33.3769063 3.92156863,63.0065359 3.92156863,63.0065359 C3.92156863,63.0065359 0.435729847,97.8649237 0.435729847,130.980392 L0.435729847,162.352941 C0.435729847,197.211329 3.92156863,230.326797 3.92156863,230.326797 C3.92156863,230.326797 7.40740741,259.956427 19.6078431,272.156863 C35.2941176,289.586057 54.4662309,287.843137 63.1808279,289.586057 C94.5533769,293.071895 199.12854,293.071895 199.12854,293.071895 C199.12854,293.071895 282.788671,293.071895 340.305011,287.843137 C347.276688,286.100218 364.705882,286.100218 380.392157,270.413943 C392.592593,258.213508 396.078431,228.583878 396.078431,228.583878 C396.078431,228.583878 399.56427,193.72549 399.56427,160.610022 L399.56427,129.237473 C397.821351,96.1220044 394.335512,63.0065359 394.335512,63.0065359 L394.335512,63.0065359 Z M145.098039,219.869281 L145.098039,71.7211329 L267.102397,144.923747 L145.098039,219.869281 L145.098039,219.869281 Z" id="path-1"></path>
    </defs>
    <g id="Page-1" stroke="none" stroke-width="1" fill="none" fill-rule="evenodd">
        <g id="webvideo">
            <g id="item_category_webvideo" transform="translate(80.000000, 133.000000)">
                <mask id="mask-2" fill="white">
                    <use xlink:href="#path-1"></use>
                </mask>
                <use id="Clip-2" fill="#000000" xlink:href="#path-1"></use>
            </g>
        </g>
    </g>
</svg>